0
SECTION
2
HEADER
9
$INSUNITS
70
4
9
$ACADVER
1
AC1014
9
$HANDSEED
5
FFFF
0
ENDSEC
0
SECTION
2
TABLES
0
TABLE
2
VPORT
5
8
100
AcDbSymbolTable
0
ENDTAB
0
TABLE
2
LTYPE
5
5
100
AcDbSymbolTable
0
LTYPE
5
14
100
AcDbSymbolTableRecord
100
AcDbLinetypeTableRecord
2
BYBLOCK
70
0
0
LTYPE
5
15
100
AcDbSymbolTableRecord
100
AcDbLinetypeTableRecord
2
BYLAYER
70
0
0
ENDTAB
0
TABLE
2
LAYER
5
2
100
AcDbSymbolTable
70
2
0
LAYER
5
50
100
AcDbSymbolTableRecord
100
AcDbLayerTableRecord
2
0
70
0
6
CONTINUOUS
0
ENDTAB
0
TABLE
2
STYLE
5
3
100
AcDbSymbolTable
70
1
0
STYLE
5
11
100
AcDbSymbolTableRecord
100
AcDbTextStyleTableRecord
2
STANDARD
70
0
0
ENDTAB
0
TABLE
2
VIEW
5
6
100
AcDbSymbolTable
70
0
0
ENDTAB
0
TABLE
2
UCS
5
7
100
AcDbSymbolTable
70
0
0
ENDTAB
0
TABLE
2
APPID
5
9
100
AcDbSymbolTable
70
2
0
APPID
5
12
100
AcDbSymbolTableRecord
100
AcDbRegAppTableRecord
2
ACAD
70
0
0
ENDTAB
0
TABLE
2
DIMSTYLE
5
A
100
AcDbSymbolTable
70
1
0
ENDTAB
0
TABLE
2
BLOCK_RECORD
5
1
100
AcDbSymbolTable
70
1
0
BLOCK_RECORD
5
1F
100
AcDbSymbolTableRecord
100
AcDbBlockTableRecord
2
*MODEL_SPACE
0
BLOCK_RECORD
5
1B
100
AcDbSymbolTableRecord
100
AcDbBlockTableRecord
2
*PAPER_SPACE
0
ENDTAB
0
ENDSEC
0
SECTION
2
BLOCKS
0
BLOCK
5
20
100
AcDbEntity
100
AcDbBlockBegin
2
*MODEL_SPACE
0
ENDBLK
5
21
100
AcDbEntity
100
AcDbBlockEnd
0
BLOCK
5
1C
100
AcDbEntity
100
AcDbBlockBegin
2
*PAPER_SPACE
0
ENDBLK
5
1D
100
AcDbEntity
100
AcDbBlockEnd
0
ENDSEC
0
SECTION
2
ENTITIES
0
LINE
5
100
100
AcDbEntity
8
0
100
AcDbLine
10
-82.656539451005898
20
91.205278078769766
30
0
11
-84.141463691500604
21
89.720353838281781
31
0
0
LINE
5
101
100
AcDbEntity
8
0
100
AcDbLine
10
-84.141463691500604
20
89.720353838281781
30
0
11
-91.212531503366108
21
96.791421650147228
31
0
0
LINE
5
102
100
AcDbEntity
8
0
100
AcDbLine
10
-91.212531503366108
20
96.791421650147228
30
0
11
-146.49637720268342
21
41.507575950825029
31
0
0
LINE
5
103
100
AcDbEntity
8
0
100
AcDbLine
10
-146.49637720268342
20
41.507575950825029
30
0
11
-149.28944898837025
21
44.300647736511877
31
0
0
LINE
5
104
100
AcDbEntity
8
0
100
AcDbLine
10
-149.28944898837025
20
44.300647736511877
30
0
11
-156.36051680023573
21
37.229579924646401
31
0
0
LINE
5
105
100
AcDbEntity
8
0
100
AcDbLine
10
-156.36051680023573
20
37.229579924646401
30
0
11
-157.84544104072754
21
38.714504165138194
31
0
0
LINE
5
106
100
AcDbEntity
8
0
100
AcDbLine
10
-157.84544104072754
20
38.714504165138194
30
0
11
-150.77437322886203
21
45.785571977003656
31
0
0
LINE
5
107
100
AcDbEntity
8
0
100
AcDbLine
10
-150.77437322886203
20
45.785571977003656
30
0
11
-157.10297892048163
21
52.114177668623242
31
0
0
LINE
5
108
100
AcDbEntity
8
0
100
AcDbLine
10
-157.10297892048163
20
52.114177668623242
30
0
11
-155.30101583113375
21
53.916140757971021
31
0
0
ARC
5
109
100
AcDbEntity
8
0
100
AcDbCircle
10
-156.00812261232031
20
54.623247539157575
30
0
40
0.999999999999998
210
-0
220
0
230
1
100
AcDbArc
50
-45
51
70.692687127184243
0
SPLINE
5
110
100
AcDbEntity
8
0
100
AcDbSpline
70
4
71
5
72
21
73
15
74
0
42
0.000000001
43
0.0000000001
44
0.0000000001
40
0
40
0
40
0
40
0
40
0
40
0
40
0.10000000000000001
40
0.20000000000000001
40
0.30000000000000004
40
0.40000000000000002
40
0.5
40
0.59999999999999998
40
0.69999999999999996
40
0.79999999999999993
40
0.89999999999999991
40
1
40
1
40
1
40
1
40
1
40
1
41
1
41
1
41
1
41
1
41
1
41
1
41
1
41
1
41
1
41
1
41
1
41
1
41
1
41
1
41
1
10
-155.67748776148406
20
55.567006298275857
30
0
10
-155.86415295774242
20
55.632402268087958
30
0
10
-156.23772293108942
20
55.753617076310022
30
0
10
-156.79879958995423
20
55.906704567910033
30
0
10
-157.55207591004717
20
56.049201089208609
30
0
10
-158.5229435084143
20
56.100973529502056
30
0
10
-159.54761312089983
20
55.998472292975769
30
0
10
-160.64786507270759
20
55.718252686599968
30
0
10
-161.83290237369749
20
55.256183432682946
30
0
10
-163.10223059814891
20
54.621995494566242
30
0
10
-164.45127071149344
20
53.829771263933573
30
0
10
-165.58968901747303
20
53.080472663104686
30
0
10
-166.47481835641145
20
52.457731103361624
30
0
10
-167.07859391197144
20
52.016005533180447
30
0
10
-167.3839042233061
20
51.788501253649535
30
0
0
LINE
5
111
100
AcDbEntity
8
0
100
AcDbLine
10
-167.38390422330613
20
51.788501253649542
30
0
11
-174.91748692550857
21
44.254918551447091
31
0
0
ARC
5
112
100
AcDbEntity
8
0
100
AcDbCircle
10
-164.3108852077103
20
33.648316833648778
30
0
40
15.000000000000103
210
0
220
0
230
1
100
AcDbArc
50
134.99999999999991
51
180
0
LINE
5
113
100
AcDbEntity
8
0
100
AcDbLine
10
-179.31088520771041
20
33.648316833648785
30
0
11
-179.31088520771041
21
23.92415841682439
31
0
0
LINE
5
114
100
AcDbEntity
8
0
100
AcDbLine
10
-179.31088520771041
20
23.92415841682439
30
0
11
-169.31088520771041
21
23.92415841682439
31
0
0
LINE
5
115
100
AcDbEntity
8
0
100
AcDbLine
10
-169.31088520771041
20
23.92415841682439
30
0
11
-169.31088520771041
21
21.824158416824389
31
0
0
LINE
5
116
100
AcDbEntity
8
0
100
AcDbLine
10
-169.31088520771041
20
21.824158416824389
30
0
11
-179.31088520771041
21
21.824158416824389
31
0
0
LINE
5
117
100
AcDbEntity
8
0
100
AcDbLine
10
-179.31088520771041
20
21.824158416824389
30
0
11
-179.31088520771041
21
10
31
0
0
ARC
5
118
100
AcDbEntity
8
0
100
AcDbCircle
10
-169.31088520771041
20
10
30
0
40
10
210
0
220
0
230
1
100
AcDbArc
50
180
51
270
0
LINE
5
119
100
AcDbEntity
8
0
100
AcDbLine
10
-169.31088520771041
20
-4.9303806576313238e-31
30
0
11
-153.47994660913474
21
1.4210854715202004e-13
31
0
0
ARC
5
120
100
AcDbEntity
8
0
100
AcDbCircle
10
-153.47994660913474
20
20.000000000000142
30
0
40
20
210
0
220
0
230
1
100
AcDbArc
50
270
51
323.89575399052785
0
ELLIPSE
5
121
100
AcDbEntity
8
0
100
AcDbEllipse
10
-44.492014606206283
20
-281.14902756256367
30
0
11
62.38646953649252
21
-311.04628621891061
31
0.0
40
0.35078022412582016
41
3.3471368101682843
42
3.4531452877765596
0
LINE
5
122
100
AcDbEntity
8
0
100
AcDbLine
10
-127.8343650199629
20
18.883245474558361
30
0
11
-134.59131908545189
21
26.228418047709585
31
0
0
LINE
5
123
100
AcDbEntity
8
0
100
AcDbLine
10
-134.59131908545189
20
26.228418047709585
30
0
11
-133.04580056429464
21
27.650167850157263
31
0
0
LINE
5
124
100
AcDbEntity
8
0
100
AcDbLine
10
-133.04580056429464
20
27.650167850157263
30
0
11
-126.27556340978195
21
20.290555844646665
31
0
0
LINE
5
125
100
AcDbEntity
8
0
100
AcDbLine
10
-126.27556340978195
20
20.290555844646665
30
0
11
-127.04832267036056
21
19.579680943422815
31
0
0
SPLINE
5
126
100
AcDbEntity
8
0
100
AcDbSpline
70
4
71
5
72
20
73
14
74
0
42
0.000000001
43
0.0000000001
44
0.0000000001
40
0.19529625283265592
40
0.19529625283265592
40
0.19529625283265592
40
0.19529625283265592
40
0.19529625283265592
40
0.19529625283265592
40
0.20000000000000001
40
0.30000000000000004
40
0.40000000000000002
40
0.5
40
0.59999999999999998
40
0.69999999999999996
40
0.79999999999999993
40
0.89999999999999991
40
0.96660249368131868
40
0.96660249368131868
40
0.96660249368131868
40
0.96660249368131868
40
0.96660249368131868
40
0.96660249368131868
41
1
41
1
41
1
41
1
41
1
41
1
41
1
41
1
41
1
41
1
41
1
41
1
41
1
41
1
10
-127.04832267036053
20
19.579680943422815
30
0
10
-126.96486886513131
20
19.65225210669578
30
0
10
-125.10492674817711
20
21.261622795354221
30
0
10
-121.36884236207931
20
24.145043582588556
30
0
10
-115.51083240740851
20
27.654477775057806
30
0
10
-107.11596064745018
20
30.695896985128371
30
0
10
-95.696655704444254
20
31.6911547226442
30
0
10
-83.2511484548981
20
29.980708895503337
30
0
10
-69.860907192844934
20
25.779360281474219
30
0
10
-56.569173046098882
20
19.760171706270874
30
0
10
-45.607431856264114
20
13.663563965717341
30
0
10
-37.378096989320248
20
8.5505474198953113
30
0
10
-32.13669223987128
20
5.0948407278792631
30
0
10
-30.025607700232271
20
3.6718721827898997
30
0
0
ARC
5
127
100
AcDbEntity
8
0
100
AcDbCircle
10
-18.008625610987927
20
21.500000000000018
30
0
40
21.500000000000014
210
0
220
0
230
1
100
AcDbArc
50
236.018209123622
51
270
0
LINE
5
128
100
AcDbEntity
8
0
100
AcDbLine
10
-18.008625610987927
20
6.6613381477509392e-15
30
0
11
-9.9999024876050235
21
0
31
0
0
ARC
5
129
100
AcDbEntity
8
0
100
AcDbCircle
10
-9.99990248760502
20
9.9999999999999964
30
0
40
9.9999999999999964
210
0
220
0
230
1
100
AcDbArc
50
270
51
309.27135309696462
0
LINE
5
130
100
AcDbEntity
8
0
100
AcDbLine
10
-3.6699636206213455
20
2.258432074815242
30
0
11
-10.462099938027283
21
9.5808917418809791
31
0
0
LINE
5
131
100
AcDbEntity
8
0
100
AcDbLine
10
-10.462099938027283
20
9.5808917418809791
30
0
11
-8.9957852052815923
21
10.941009789894789
31
0
0
LINE
5
132
100
AcDbEntity
8
0
100
AcDbLine
10
-8.9957852052815923
20
10.941009789894789
30
0
11
-2.1271996988714825
21
3.8339193323256637
31
0
0
ARC
5
133
100
AcDbEntity
8
0
100
AcDbCircle
10
-9.99990248760502
20
9.9999999999999964
30
0
40
9.9999999999999982
210
-0
220
0
230
1
100
AcDbArc
50
321.93114157170589
51
359.99944129271773
0
LINE
5
134
100
AcDbEntity
8
0
100
AcDbLine
10
9.7511919540105296e-05
20
9.9999024871295852
30
0
11
0.00047517944521402455
21
48.729920798661446
31
0
0
LINE
5
135
100
AcDbEntity
8
0
100
AcDbLine
10
0.00047517944521402455
20
48.729920798661446
30
0
11
-9.9990546607734299
21
48.729920798661446
31
0
0
LINE
5
136
100
AcDbEntity
8
0
100
AcDbLine
10
-9.9990546607734299
20
48.729920798661446
30
0
11
-9.9990546607734299
21
50.829920798661448
31
0
0
LINE
5
137
100
AcDbEntity
8
0
100
AcDbLine
10
-9.9990546607734299
20
50.829920798661448
30
0
11
0.00049565714800081651
21
50.829920798661448
31
0
0
LINE
5
138
100
AcDbEntity
8
0
100
AcDbLine
10
0.00049565714800081651
20
50.829920798661448
30
0
11
0.0018097563750885115
21
185.59153959626366
31
0
0
ARC
5
139
100
AcDbEntity
8
0
100
AcDbCircle
10
-0.99819024357735664
20
185.5915493475506
30
0
40
0.9999999999999889
210
-0
220
0
230
1
100
AcDbArc
50
-0.00055870728225195648
51
134.99999999999909
0
LINE
5
140
100
AcDbEntity
8
0
100
AcDbLine
10
-1.7052970247638872
20
186.29865612873715
30
0
11
-12.506225162963291
21
175.49772799054139
31
0
0
LINE
5
141
100
AcDbEntity
8
0
100
AcDbLine
10
-12.506225162963291
20
175.49772799054139
30
0
11
-5.4351573510981765
21
168.42666017867558
31
0
0
LINE
5
142
100
AcDbEntity
8
0
100
AcDbLine
10
-5.4351573510981765
20
168.42666017867558
30
0
11
-6.9200815915899927
21
166.94173593818391
31
0
0
LINE
5
143
100
AcDbEntity
8
0
100
AcDbLine
10
-6.9200815915899927
20
166.94173593818391
30
0
11
-13.992435804250016
21
174.0115173492546
31
0
0
LINE
5
144
100
AcDbEntity
8
0
100
AcDbLine
10
-13.992435804250016
20
174.0115173492546
30
0
11
-89.727607262871118
21
98.276345890635696
31
0
0
LINE
5
145
100
AcDbEntity
8
0
100
AcDbLine
10
-89.727607262871118
20
98.276345890635696
30
0
11
-82.656539451005898
21
91.205278078769766
31
0
0
SPLINE
5
146
100
AcDbEntity
8
0
100
AcDbSpline
70
6
71
5
72
31
73
25
74
0
42
0.000000001
43
0.0000000001
44
0.0000000001
40
-1
40
-1
40
-1
40
-1
40
-1
40
-1
40
-0.95000000000000029
40
-0.90000000000000024
40
-0.8500000000000002
40
-0.80000000000000016
40
-0.75000000000000011
40
-0.70000000000000007
40
-0.65000000000000002
40
-0.59999999999999998
40
-0.54999999999999993
40
-0.49999999999999994
40
-0.44999999999999996
40
-0.39999999999999997
40
-0.34999999999999998
40
-0.29999999999999999
40
-0.25
40
-0.20000000000000001
40
-0.15000000000000002
40
-0.10000000000000001
40
-0.050000000000000003
40
0
40
0
40
0
40
0
40
0
40
0
41
1
41
1
41
1
41
1
41
1
41
1
41
1
41
1
41
1
41
1
41
1
41
1
41
1
41
1
41
1
41
1
41
1
41
1
41
1
41
1
41
1
41
1
41
1
41
1
41
1
10
-15.993442327617423
20
149.468768140451
30
0
10
-15.257953288841362
20
148.86282528218658
30
0
10
-13.88335684931506
20
146.98267753440737
30
0
10
-12.12289525180196
20
142.14088532288355
30
0
10
-10.508100138203098
20
131.97643088273122
30
0
10
-10.254402653453006
20
115.30019665539317
30
0
10
-12.341665023264067
20
97.611007365900164
30
0
10
-17.199212339176796
20
82.019966206837168
30
0
10
-24.907178272343149
20
71.156979887309561
30
0
10
-35.032684630413755
20
66.627646046414256
30
0
10
-46.34572200895532
20
68.207666486340017
30
0
10
-57.060344460845158
20
74.193543640810887
30
0
10
-65.316479293530506
20
82.280362407692394
30
0
10
-69.589804435853765
20
90.266278118940718
30
0
10
-69.121324955351739
20
96.79826512996749
30
0
10
-64.397001993759886
20
102.1812624179102
30
0
10
-56.725997588327374
20
107.67811207488252
30
0
10
-47.740501651412607
20
114.65424716829625
30
0
10
-38.979533136079084
20
123.88443777855423
30
0
10
-31.332045489342583
20
134.54107106182275
30
0
10
-25.013078452062786
20
144.37502964963497
30
0
10
-20.924187421715267
20
149.44576861424983
30
0
10
-18.296291081971429
20
150.61833468399391
30
0
10
-16.728931366393482
20
150.0747109987154
30
0
10
-15.993442327617423
20
149.468768140451
30
0
0
SPLINE
5
147
100
AcDbEntity
8
0
100
AcDbSpline
70
6
71
5
72
36
73
30
74
0
42
0.000000001
43
0.0000000001
44
0.0000000001
40
-1
40
-1
40
-1
40
-1
40
-1
40
-1
40
-0.9600000000000003
40
-0.92000000000000026
40
-0.88000000000000023
40
-0.84000000000000019
40
-0.80000000000000016
40
-0.76000000000000012
40
-0.72000000000000008
40
-0.68000000000000005
40
-0.64000000000000001
40
-0.59999999999999998
40
-0.55999999999999994
40
-0.51999999999999991
40
-0.47999999999999993
40
-0.43999999999999995
40
-0.39999999999999997
40
-0.35999999999999999
40
-0.32000000000000001
40
-0.28000000000000003
40
-0.24000000000000002
40
-0.20000000000000001
40
-0.16
40
-0.12
40
-0.080000000000000002
40
-0.040000000000000001
40
0
40
0
40
0
40
0
40
0
40
0
41
1
41
1
41
1
41
1
41
1
41
1
41
1
41
1
41
1
41
1
41
1
41
1
41
1
41
1
41
1
41
1
41
1
41
1
41
1
41
1
41
1
41
1
41
1
41
1
41
1
41
1
41
1
41
1
41
1
41
1
10
-85.901923801803974
20
76.184998822878157
30
0
10
-84.380652715108582
20
75.695003765859369
30
0
10
-81.254479285274897
20
74.447693899109794
30
0
10
-76.345320176524751
20
71.797377260534731
30
0
10
-69.569243034080031
20
66.910102171755156
30
0
10
-61.513084817816754
20
59.439555607801459
30
0
10
-54.792502315318629
20
51.692800652574185
30
0
10
-50.305261044557845
20
44.761274635073605
30
0
10
-48.770437454839453
20
39.54889647718182
30
0
10
-50.58718409627312
20
36.598139394453611
30
0
10
-55.650094947488206
20
35.857763214590186
30
0
10
-63.431156806126758
20
36.818392506372064
30
0
10
-73.123207778481543
20
38.733407736304095
30
0
10
-83.758382828440517
20
40.80914723481073
30
0
10
-94.332860801800393
20
42.401292440987277
30
0
10
-103.930033041794
20
43.221276601200316
30
0
10
-111.83735702115557
20
43.507919418192373
30
0
10
-117.558578815785
20
43.802791460294372
30
0
10
-120.84234714986988
20
44.750952432824022
30
0
10
-121.69630865130063
20
46.909951483104507
30
0
10
-120.4396464025762
20
50.515692154721208
30
0
10
-117.62920095029256
20
55.417241165410275
30
0
10
-113.84614728175822
20
61.179670491472194
30
0
10
-109.54120706671077
20
67.142196746015131
30
0
10
-104.80895599959537
20
72.480516919498484
30
0
10
-99.478084679076318
20
76.333212983959115
30
0
10
-94.538583606200035
20
77.632103105379429
30
0
10
-90.382105805447281
20
77.387664241222438
30
0
10
-87.423194888499353
20
76.674993879896917
30
0
10
-85.901923801803974
20
76.184998822878157
30
0
0
SPLINE
5
148
100
AcDbEntity
8
0
100
AcDbSpline
70
4
71
5
72
36
73
30
74
0
42
0.000000001
43
0.0000000001
44
0.0000000001
40
0
40
0
40
0
40
0
40
0
40
0
40
0.040000000000000001
40
0.080000000000000002
40
0.12
40
0.16
40
0.20000000000000001
40
0.24000000000000002
40
0.28000000000000003
40
0.32000000000000001
40
0.35999999999999999
40
0.39999999999999997
40
0.43999999999999995
40
0.47999999999999993
40
0.51999999999999991
40
0.55999999999999994
40
0.59999999999999998
40
0.64000000000000001
40
0.68000000000000005
40
0.72000000000000008
40
0.76000000000000012
40
0.80000000000000016
40
0.84000000000000019
40
0.88000000000000023
40
0.92000000000000026
40
0.9600000000000003
40
1
40
1
40
1
40
1
40
1
40
1
41
1
41
1
41
1
41
1
41
1
41
1
41
1
41
1
41
1
41
1
41
1
41
1
41
1
41
1
41
1
41
1
41
1
41
1
41
1
41
1
41
1
41
1
41
1
41
1
41
1
41
1
41
1
41
1
41
1
41
1
10
-85.901923801803974
20
76.184998822878157
30
0
10
-87.423194888499353
20
76.674993879896917
30
0
10
-90.382105805447281
20
77.387664241222438
30
0
10
-94.538583606200035
20
77.632103105379429
30
0
10
-99.478084679076318
20
76.333212983959115
30
0
10
-104.80895599959537
20
72.480516919498484
30
0
10
-109.54120706671077
20
67.142196746015131
30
0
10
-113.84614728175822
20
61.179670491472194
30
0
10
-117.62920095029256
20
55.417241165410275
30
0
10
-120.4396464025762
20
50.515692154721208
30
0
10
-121.69630865130063
20
46.909951483104507
30
0
10
-120.84234714986988
20
44.750952432824022
30
0
10
-117.558578815785
20
43.802791460294372
30
0
10
-111.83735702115557
20
43.507919418192373
30
0
10
-103.930033041794
20
43.221276601200316
30
0
10
-94.332860801800393
20
42.401292440987277
30
0
10
-83.758382828440517
20
40.80914723481073
30
0
10
-73.123207778481543
20
38.733407736304095
30
0
10
-63.431156806126758
20
36.818392506372064
30
0
10
-55.650094947488206
20
35.857763214590186
30
0
10
-50.58718409627312
20
36.598139394453611
30
0
10
-48.770437454839453
20
39.54889647718182
30
0
10
-50.305261044557845
20
44.761274635073605
30
0
10
-54.792502315318629
20
51.692800652574185
30
0
10
-61.513084817816754
20
59.439555607801459
30
0
10
-69.569243034080031
20
66.910102171755156
30
0
10
-76.345320176524751
20
71.797377260534731
30
0
10
-81.254479285274897
20
74.447693899109794
30
0
10
-84.380652715108582
20
75.695003765859369
30
0
10
-85.901923801803974
20
76.184998822878157
30
0
0
SPLINE
5
149
100
AcDbEntity
8
0
100
AcDbSpline
70
4
71
5
72
31
73
25
74
0
42
0.000000001
43
0.0000000001
44
0.0000000001
40
0
40
0
40
0
40
0
40
0
40
0
40
0.050000000000000003
40
0.10000000000000001
40
0.15000000000000002
40
0.20000000000000001
40
0.25
40
0.29999999999999999
40
0.34999999999999998
40
0.39999999999999997
40
0.44999999999999996
40
0.49999999999999994
40
0.54999999999999993
40
0.59999999999999998
40
0.65000000000000002
40
0.70000000000000007
40
0.75000000000000011
40
0.80000000000000016
40
0.8500000000000002
40
0.90000000000000024
40
0.95000000000000029
40
1
40
1
40
1
40
1
40
1
40
1
41
1
41
1
41
1
41
1
41
1
41
1
41
1
41
1
41
1
41
1
41
1
41
1
41
1
41
1
41
1
41
1
41
1
41
1
41
1
41
1
41
1
41
1
41
1
41
1
41
1
10
-15.993442327617423
20
149.468768140451
30
0
10
-16.728931366393482
20
150.0747109987154
30
0
10
-18.296291081971429
20
150.61833468399391
30
0
10
-20.924187421715267
20
149.44576861424983
30
0
10
-25.013078452062786
20
144.37502964963497
30
0
10
-31.332045489342583
20
134.54107106182275
30
0
10
-38.979533136079084
20
123.88443777855423
30
0
10
-47.740501651412607
20
114.65424716829625
30
0
10
-56.725997588327374
20
107.67811207488252
30
0
10
-64.397001993759886
20
102.1812624179102
30
0
10
-69.121324955351739
20
96.79826512996749
30
0
10
-69.589804435853765
20
90.266278118940718
30
0
10
-65.316479293530506
20
82.280362407692394
30
0
10
-57.060344460845158
20
74.193543640810887
30
0
10
-46.34572200895532
20
68.207666486340017
30
0
10
-35.032684630413755
20
66.627646046414256
30
0
10
-24.907178272343149
20
71.156979887309561
30
0
10
-17.199212339176796
20
82.019966206837168
30
0
10
-12.341665023264067
20
97.611007365900164
30
0
10
-10.254402653453006
20
115.30019665539317
30
0
10
-10.508100138203098
20
131.97643088273122
30
0
10
-12.12289525180196
20
142.14088532288355
30
0
10
-13.88335684931506
20
146.98267753440737
30
0
10
-15.257953288841362
20
148.86282528218658
30
0
10
-15.993442327617423
20
149.468768140451
30
0
0
LINE
5
150
100
AcDbEntity
8
0
100
AcDbLine
10
-89.727607262871118
20
98.276345890635696
30
0
11
-82.656539451005898
21
91.205278078769766
31
0
0
LINE
5
151
100
AcDbEntity
8
0
100
AcDbLine
10
-89.727607262871118
20
98.276345890635696
30
0
11
-13.992435804250007
21
174.0115173492546
31
0
0
LINE
5
152
100
AcDbEntity
8
0
100
AcDbLine
10
-6.9200815915899891
20
166.94173593818391
30
0
11
-13.992435804250007
21
174.0115173492546
31
0
0
LINE
5
153
100
AcDbEntity
8
0
100
AcDbLine
10
-5.435157351098181
20
168.42666017867558
30
0
11
-6.9200815915899891
21
166.94173593818391
31
0
0
LINE
5
154
100
AcDbEntity
8
0
100
AcDbLine
10
-12.50622516296329
20
175.49772799054139
30
0
11
-5.435157351098181
21
168.42666017867558
31
0
0
LINE
5
155
100
AcDbEntity
8
0
100
AcDbLine
10
-12.50622516296329
20
175.49772799054139
30
0
11
-1.705297024765482
21
186.2986561287388
31
0
0
ARC
5
156
100
AcDbEntity
8
0
100
AcDbCircle
10
-0.99819024357735664
20
185.5915493475506
30
0
40
0.99999999999999267
210
-0
220
0
230
1
100
AcDbArc
50
-0.00055870728225195648
51
134.99999999999693
0
LINE
5
157
100
AcDbEntity
8
0
100
AcDbLine
10
0.00049565714709443813
20
50.829920798661448
30
0
11
0.0018097563750922585
21
185.59153959626366
31
0
0
LINE
5
158
100
AcDbEntity
8
0
100
AcDbLine
10
0.00049565714709443813
20
50.829920798661448
30
0
11
-9.9990546607734263
21
50.829920798661448
31
0
0
LINE
5
159
100
AcDbEntity
8
0
100
AcDbLine
10
-9.9990546607734263
20
50.829920798661448
30
0
11
-9.9990546607734263
21
48.729920798661446
31
0
0
LINE
5
160
100
AcDbEntity
8
0
100
AcDbLine
10
-9.9990546607734263
20
48.729920798661446
30
0
11
0.00047517944521846545
21
48.729920798661446
31
0
0
LINE
5
161
100
AcDbEntity
8
0
100
AcDbLine
10
9.7511919540105296e-05
20
9.9999024871295887
30
0
11
0.00047517944521846545
21
48.729920798661446
31
0
0
ARC
5
162
100
AcDbEntity
8
0
100
AcDbCircle
10
-9.99990248760502
20
9.9999999999999964
30
0
40
9.9999999999999982
210
0
220
0
230
1
100
AcDbArc
50
321.93114157170595
51
359.99944129271773
0
LINE
5
163
100
AcDbEntity
8
0
100
AcDbLine
10
-8.9957852052815941
20
10.941009789894798
30
0
11
-2.1271996988714781
21
3.8339193323256699
31
0
0
LINE
5
164
100
AcDbEntity
8
0
100
AcDbLine
10
-10.462099938027285
20
9.5808917418809756
30
0
11
-8.9957852052815941
21
10.941009789894798
31
0
0
LINE
5
165
100
AcDbEntity
8
0
100
AcDbLine
10
-3.6699636206213464
20
2.2584320748152416
30
0
11
-10.462099938027285
21
9.5808917418809756
31
0
0
ARC
5
166
100
AcDbEntity
8
0
100
AcDbCircle
10
-9.99990248760502
20
9.9999999999999964
30
0
40
9.9999999999999964
210
0
220
0
230
1
100
AcDbArc
50
270
51
309.27135309696456
0
LINE
5
167
100
AcDbEntity
8
0
100
AcDbLine
10
-9.9999024876050218
20
0
30
0
11
-18.008625610987931
21
8.8817841970012586e-15
31
0
0
ARC
5
168
100
AcDbEntity
8
0
100
AcDbCircle
10
-18.008625610987927
20
21.500000000000018
30
0
40
21.500000000000007
210
0
220
0
230
1
100
AcDbArc
50
236.018209123622
51
270
0
SPLINE
5
169
100
AcDbEntity
8
0
100
AcDbSpline
70
4
71
5
72
20
73
14
74
0
42
0.000000001
43
0.0000000001
44
0.0000000001
40
0.19529625283265592
40
0.19529625283265592
40
0.19529625283265592
40
0.19529625283265592
40
0.19529625283265592
40
0.19529625283265592
40
0.20000000000000001
40
0.30000000000000004
40
0.40000000000000002
40
0.5
40
0.59999999999999998
40
0.69999999999999996
40
0.79999999999999993
40
0.89999999999999991
40
0.96660249368131868
40
0.96660249368131868
40
0.96660249368131868
40
0.96660249368131868
40
0.96660249368131868
40
0.96660249368131868
41
1
41
1
41
1
41
1
41
1
41
1
41
1
41
1
41
1
41
1
41
1
41
1
41
1
41
1
10
-127.04832267036053
20
19.579680943422815
30
0
10
-126.96486886513134
20
19.652252106695769
30
0
10
-125.10492674817711
20
21.261622795354221
30
0
10
-121.36884236207931
20
24.145043582588556
30
0
10
-115.51083240740851
20
27.654477775057806
30
0
10
-107.11596064745018
20
30.695896985128371
30
0
10
-95.696655704444254
20
31.6911547226442
30
0
10
-83.2511484548981
20
29.980708895503337
30
0
10
-69.860907192844934
20
25.779360281474219
30
0
10
-56.569173046098882
20
19.760171706270874
30
0
10
-45.607431856264114
20
13.663563965717341
30
0
10
-37.378096989320248
20
8.5505474198953113
30
0
10
-32.13669223987128
20
5.0948407278792631
30
0
10
-30.025607700232271
20
3.6718721827898997
30
0
0
LINE
5
170
100
AcDbEntity
8
0
100
AcDbLine
10
-127.04832267036053
20
19.579680943422815
30
0
11
-126.27556340978195
21
20.290555844646665
31
0
0
LINE
5
171
100
AcDbEntity
8
0
100
AcDbLine
10
-126.27556340978195
20
20.290555844646665
30
0
11
-133.04580056429464
21
27.65016785015726
31
0
0
LINE
5
172
100
AcDbEntity
8
0
100
AcDbLine
10
-133.04580056429464
20
27.65016785015726
30
0
11
-134.59131908545189
21
26.228418047709582
31
0
0
LINE
5
173
100
AcDbEntity
8
0
100
AcDbLine
10
-127.83436501996292
20
18.883245474558322
30
0
11
-134.59131908545189
21
26.228418047709582
31
0
0
ELLIPSE
5
174
100
AcDbEntity
8
0
100
AcDbEllipse
10
-44.492014606206283
20
-281.14902756256367
30
0
11
62.38646953649252
21
-311.04628621891061
31
0.0
40
0.35078022412582016
41
3.3471368101682848
42
3.4531452877756439
0
ARC
5
175
100
AcDbEntity
8
0
100
AcDbCircle
10
-153.47994660913474
20
20.000000000000142
30
0
40
20
210
0
220
0
230
1
100
AcDbArc
50
270
51
323.89575399090523
0
LINE
5
176
100
AcDbEntity
8
0
100
AcDbLine
10
-153.47994660913474
20
1.4210854715202004e-13
30
0
11
-169.31088520771041
21
0
31
0
0
ARC
5
177
100
AcDbEntity
8
0
100
AcDbCircle
10
-169.31088520771041
20
10
30
0
40
10
210
0
220
0
230
1
100
AcDbArc
50
180
51
270
0
LINE
5
178
100
AcDbEntity
8
0
100
AcDbLine
10
-179.31088520771041
20
9.9999999999999982
30
0
11
-179.31088520771041
21
21.824158416824389
31
0
0
LINE
5
179
100
AcDbEntity
8
0
100
AcDbLine
10
-179.31088520771041
20
21.824158416824389
30
0
11
-169.31088520771041
21
21.824158416824389
31
0
0
LINE
5
180
100
AcDbEntity
8
0
100
AcDbLine
10
-169.31088520771041
20
23.92415841682439
30
0
11
-169.31088520771041
21
21.824158416824389
31
0
0
LINE
5
181
100
AcDbEntity
8
0
100
AcDbLine
10
-179.31088520771041
20
23.92415841682439
30
0
11
-169.31088520771041
21
23.92415841682439
31
0
0
LINE
5
182
100
AcDbEntity
8
0
100
AcDbLine
10
-179.31088520771041
20
23.92415841682439
30
0
11
-179.31088520771041
21
33.648316833648778
31
0
0
ARC
5
183
100
AcDbEntity
8
0
100
AcDbCircle
10
-164.3108852077103
20
33.648316833648778
30
0
40
15.000000000000103
210
0
220
0
230
1
100
AcDbArc
50
134.99999999999991
51
180
0
LINE
5
184
100
AcDbEntity
8
0
100
AcDbLine
10
-167.3839042233061
20
51.788501253649535
30
0
11
-174.91748692550857
21
44.254918551447091
31
0
0
SPLINE
5
185
100
AcDbEntity
8
0
100
AcDbSpline
70
4
71
5
72
21
73
15
74
0
42
0.000000001
43
0.0000000001
44
0.0000000001
40
0
40
0
40
0
40
0
40
0
40
0
40
0.10000000000000001
40
0.20000000000000001
40
0.30000000000000004
40
0.40000000000000002
40
0.5
40
0.59999999999999998
40
0.69999999999999996
40
0.79999999999999993
40
0.89999999999999991
40
1
40
1
40
1
40
1
40
1
40
1
41
1
41
1
41
1
41
1
41
1
41
1
41
1
41
1
41
1
41
1
41
1
41
1
41
1
41
1
41
1
10
-155.67748776148406
20
55.567006298275857
30
0
10
-155.86415295774242
20
55.632402268087958
30
0
10
-156.23772293108942
20
55.753617076310022
30
0
10
-156.79879958995423
20
55.906704567910033
30
0
10
-157.55207591004717
20
56.049201089208609
30
0
10
-158.5229435084143
20
56.100973529502056
30
0
10
-159.54761312089983
20
55.998472292975769
30
0
10
-160.64786507270759
20
55.718252686599968
30
0
10
-161.83290237369749
20
55.256183432682946
30
0
10
-163.10223059814891
20
54.621995494566242
30
0
10
-164.45127071149344
20
53.829771263933573
30
0
10
-165.58968901747303
20
53.080472663104686
30
0
10
-166.47481835641145
20
52.457731103361624
30
0
10
-167.07859391197144
20
52.016005533180447
30
0
10
-167.3839042233061
20
51.788501253649535
30
0
0
ARC
5
186
100
AcDbEntity
8
0
100
AcDbCircle
10
-156.00812261232031
20
54.623247539157575
30
0
40
0.999999999999998
210
-0
220
0
230
1
100
AcDbArc
50
-45
51
70.692687127184371
0
LINE
5
187
100
AcDbEntity
8
0
100
AcDbLine
10
-157.10297892048163
20
52.114177668623242
30
0
11
-155.30101583113375
21
53.916140757971021
31
0
0
LINE
5
188
100
AcDbEntity
8
0
100
AcDbLine
10
-150.77437322886203
20
45.785571977003663
30
0
11
-157.10297892048163
21
52.114177668623242
31
0
0
LINE
5
189
100
AcDbEntity
8
0
100
AcDbLine
10
-150.77437322886203
20
45.785571977003663
30
0
11
-157.84544104072754
21
38.714504165138194
31
0
0
LINE
5
190
100
AcDbEntity
8
0
100
AcDbLine
10
-156.36051680023573
20
37.229579924646401
30
0
11
-157.84544104072754
21
38.714504165138194
31
0
0
LINE
5
191
100
AcDbEntity
8
0
100
AcDbLine
10
-149.28944898837025
20
44.300647736511877
30
0
11
-156.36051680023573
21
37.229579924646401
31
0
0
LINE
5
192
100
AcDbEntity
8
0
100
AcDbLine
10
-146.49637720268342
20
41.507575950825029
30
0
11
-149.28944898837025
21
44.300647736511877
31
0
0
LINE
5
193
100
AcDbEntity
8
0
100
AcDbLine
10
-146.49637720268342
20
41.507575950825029
30
0
11
-91.212531503362868
21
96.791421650143974
31
0
0
LINE
5
194
100
AcDbEntity
8
0
100
AcDbLine
10
-91.212531503362868
20
96.791421650143974
30
0
11
-84.141463691500604
21
89.720353838281781
31
0
0
LINE
5
195
100
AcDbEntity
8
0
100
AcDbLine
10
-82.656539451005898
20
91.205278078769766
30
0
11
-84.141463691500604
21
89.720353838281781
31
0
0
ENDSEC
0
SECTION
2
OBJECTS
0
DICTIONARY
5
C
100
AcDbDictionary
3
ACAD_GROUP
350
D
3
ACAD_MLINESTYLE
350
17
0
DICTIONARY
5
D
100
AcDbDictionary
0
DICTIONARY
5
1A
330
C
100
AcDbDictionary
0
DICTIONARY
5
17
100
AcDbDictionary
0
ENDSEC
0
EOF
