  0
SECTION
  2
HEADER
  9
$ACADVER
  1
AC1009
  0
ENDSEC
  0
SECTION
  2
ENTITIES
  0
POLYLINE
  5
90
  8
Layer_0
  62
0
  66
1
  10
0
  20
0
  30
0
  0
VERTEX
  5
90
  8
Layer_0
  10
187.6611
  20
159.17523
  42
-0.096395294
  0
VERTEX
  5
91
  8
Layer_0
  10
189.24268
  20
157.0856
  42
-0.056297755
  0
VERTEX
  5
92
  8
Layer_0
  10
190.92784
  20
152.45413
  42
-0.039433946
  0
VERTEX
  5
93
  8
Layer_0
  10
192.55515
  20
142.47502
  42
-0.068854537
  0
VERTEX
  5
94
  8
Layer_0
  10
190.90495
  20
109.21147
  42
-0.040036142
  0
VERTEX
  5
95
  8
Layer_0
  10
187.68192
  20
97.489693
  42
-0.055576548
  0
VERTEX
  5
96
  8
Layer_0
  10
183.20406
  20
88.344116
  42
-0.076019334
  0
VERTEX
  5
97
  8
Layer_0
  10
177.77901
  20
82.118576
  42
-0.19867011
  0
VERTEX
  5
98
  8
Layer_0
  10
163.83939
  20
77.696754
  42
-0.084341225
  0
VERTEX
  5
99
  8
Layer_0
  10
154.7674
  20
80.043808
  42
-0.12594293
  0
VERTEX
  5
9a
  8
Layer_0
  10
138.82675
  20
92.625999
  42
-0.073013725
  0
VERTEX
  5
9b
  8
Layer_0
  10
135.61783
  20
98.404633
  42
-0.11532158
  0
VERTEX
  5
9c
  8
Layer_0
  10
134.90692
  20
103.6219
  42
-0.12693025
  0
VERTEX
  5
9d
  8
Layer_0
  10
136.81699
  20
108.42209
  42
-0.05536834
  0
VERTEX
  5
9e
  8
Layer_0
  10
139.99152
  20
111.91705
  42
-0.020004613
  0
VERTEX
  5
9f
  8
Layer_0
  10
144.60962
  20
115.71075
  0
VERTEX
  5
a0
  8
Layer_0
  10
147.25793
  20
117.74947
  42
0.02857928
  0
VERTEX
  5
a1
  8
Layer_0
  10
157.32281
  20
126.28856
  42
0.04125618
  0
VERTEX
  5
a2
  8
Layer_0
  10
168.34639
  20
138.95648
  42
0.010112267
  0
VERTEX
  5
a3
  8
Layer_0
  10
175.84784
  20
149.66011
  0
VERTEX
  5
a4
  8
Layer_0
  10
176.36342
  20
150.4091
  42
-0.022017722
  0
VERTEX
  5
a5
  8
Layer_0
  10
180.4071
  20
155.90039
  42
-0.057495009
  0
VERTEX
  5
a6
  8
Layer_0
  10
183.31346
  20
158.82727
  42
-0.11554099
  0
VERTEX
  5
a7
  8
Layer_0
  10
185.3542
  20
159.82036
  42
-0.23172785
  0
VERTEX
  5
a8
  8
Layer_0
  10
187.6611
  20
159.17523
  0
SEQEND
  0
POLYLINE
  5
aa
  8
Layer_0
  62
0
  66
1
  10
0
  20
0
  30
0
  0
VERTEX
  5
aa
  8
Layer_0
  10
117.75262
  20
85.891464
  42
-0.055472183
  0
VERTEX
  5
ab
  8
Layer_0
  10
125.56218
  20
82.252426
  42
-0.046134872
  0
VERTEX
  5
ac
  8
Layer_0
  10
136.5865
  20
74.058739
  42
-0.047950159
  0
VERTEX
  5
ad
  8
Layer_0
  10
148.40372
  20
61.472065
  42
-0.044393458
  0
VERTEX
  5
ae
  8
Layer_0
  10
152.47862
  20
55.164539
  42
-0.068498262
  0
VERTEX
  5
af
  8
Layer_0
  10
153.92386
  20
51.273682
  42
-0.1268233
  0
VERTEX
  5
b0
  8
Layer_0
  10
153.86298
  20
48.713985
  42
-0.22012164
  0
VERTEX
  5
b1
  8
Layer_0
  10
151.90883
  20
46.680073
  42
-0.087609807
  0
VERTEX
  5
b2
  8
Layer_0
  10
148.7318
  20
46.020138
  42
-0.041357424
  0
VERTEX
  5
b3
  8
Layer_0
  10
143.9603
  20
46.196259
  42
-0.019420968
  0
VERTEX
  5
b4
  8
Layer_0
  10
134.68857
  20
47.646629
  42
-0.00056949801
  0
VERTEX
  5
b5
  8
Layer_0
  10
126.64307
  20
49.179028
  0
VERTEX
  5
b6
  8
Layer_0
  10
124.78593
  20
49.526955
  42
0.01888417
  0
VERTEX
  5
b7
  8
Layer_0
  10
108.14319
  20
52.084126
  42
0.016050167
  0
VERTEX
  5
b8
  8
Layer_0
  10
95.460487
  20
53.066231
  0
VERTEX
  5
b9
  8
Layer_0
  10
92.851624
  20
53.193035
  42
-0.022843482
  0
VERTEX
  5
ba
  8
Layer_0
  10
86.703163
  20
53.671852
  42
-0.068550904
  0
VERTEX
  5
bb
  8
Layer_0
  10
84.10965
  20
54.349728
  42
-0.17156156
  0
VERTEX
  5
bc
  8
Layer_0
  10
82.740364
  20
55.548458
  42
-0.15754464
  0
VERTEX
  5
bd
  8
Layer_0
  10
82.528374
  20
57.401272
  42
-0.066990022
  0
VERTEX
  5
be
  8
Layer_0
  10
83.49897
  20
60.318981
  42
-0.031828809
  0
VERTEX
  5
bf
  8
Layer_0
  10
86.927254
  20
66.39061
  42
-0.024528458
  0
VERTEX
  5
c0
  8
Layer_0
  10
93.740601
  20
76.090981
  42
-0.045229439
  0
VERTEX
  5
c1
  8
Layer_0
  10
99.267212
  20
82.057037
  42
-0.074692345
  0
VERTEX
  5
c2
  8
Layer_0
  10
104.59322
  20
85.579185
  42
-0.13606154
  0
VERTEX
  5
c3
  8
Layer_0
  10
113.17203
  20
86.894913
  42
-0.050895563
  0
VERTEX
  5
c4
  8
Layer_0
  10
117.75262
  20
85.891464
  0
SEQEND
  0
POLYLINE
  5
c6
  8
Layer_0
  62
0
  66
1
  10
0
  20
0
  30
0
  0
VERTEX
  5
c6
  8
Layer_0
  10
66.333511
  20
17.921337
  42
-0.23959793
  0
VERTEX
  5
c7
  8
Layer_0
  10
50.174591
  20
9.7064667
  0
VERTEX
  5
c8
  8
Layer_0
  10
34.343658
  20
9.7064667
  42
-0.41421361
  0
VERTEX
  5
c9
  8
Layer_0
  10
24.343658
  20
19.706467
  0
VERTEX
  5
ca
  8
Layer_0
  10
24.343658
  20
27.480625
  0
VERTEX
  5
cb
  8
Layer_0
  10
34.343658
  20
27.480625
  0
VERTEX
  5
cc
  8
Layer_0
  10
34.343658
  20
29.580626
  0
VERTEX
  5
cd
  8
Layer_0
  10
24.343658
  20
29.580626
  0
VERTEX
  5
ce
  8
Layer_0
  10
24.343658
  20
43.354782
  42
-0.19891237
  0
VERTEX
  5
cf
  8
Layer_0
  10
28.737061
  20
53.961384
  0
VERTEX
  5
d0
  8
Layer_0
  10
36.27063
  20
61.494968
  42
-0.016418329
  0
VERTEX
  5
d1
  8
Layer_0
  10
38.718811
  20
63.204288
  42
-0.053327635
  0
VERTEX
  5
d2
  8
Layer_0
  10
42.599915
  20
65.245789
  42
-0.18845102
  0
VERTEX
  5
d3
  8
Layer_0
  10
47.977051
  20
65.273468
  42
-0.2579011
  0
VERTEX
  5
d4
  8
Layer_0
  10
48.621399
  20
64.552048
  42
-0.25789396
  0
VERTEX
  5
d5
  8
Layer_0
  10
48.353531
  20
63.622608
  0
VERTEX
  5
d6
  8
Layer_0
  10
46.551559
  20
61.820644
  0
VERTEX
  5
d7
  8
Layer_0
  10
49.981033
  20
58.391178
  0
VERTEX
  5
d8
  8
Layer_0
  10
42.909958
  20
51.32011
  0
VERTEX
  5
d9
  8
Layer_0
  10
44.394882
  20
49.835186
  0
VERTEX
  5
da
  8
Layer_0
  10
51.465958
  20
56.906254
  0
VERTEX
  5
db
  8
Layer_0
  10
57.158157
  20
51.214043
  0
VERTEX
  5
dc
  8
Layer_0
  10
115.34115
  20
109.39703
  0
VERTEX
  5
dd
  8
Layer_0
  10
122.41222
  20
102.32596
  0
VERTEX
  5
de
  8
Layer_0
  10
123.89714
  20
103.81088
  0
VERTEX
  5
df
  8
Layer_0
  10
116.82607
  20
110.88195
  0
VERTEX
  5
e0
  8
Layer_0
  10
186.76297
  20
180.81885
  0
VERTEX
  5
e1
  8
Layer_0
  10
193.83403
  20
173.74777
  0
VERTEX
  5
e2
  8
Layer_0
  10
195.31895
  20
175.2327
  0
VERTEX
  5
e3
  8
Layer_0
  10
188.24789
  20
182.30377
  0
VERTEX
  5
e4
  8
Layer_0
  10
201.94925
  20
196.00513
  42
-0.30334725
  0
VERTEX
  5
e5
  8
Layer_0
  10
203.03903
  20
196.22189
  42
-0.30334699
  0
VERTEX
  5
e6
  8
Layer_0
  10
203.65636
  20
195.298
  0
VERTEX
  5
e7
  8
Layer_0
  10
203.65508
  20
64.636383
  0
VERTEX
  5
e8
  8
Layer_0
  10
193.65508
  20
64.63649
  0
VERTEX
  5
e9
  8
Layer_0
  10
193.65506
  20
62.536484
  0
VERTEX
  5
ea
  8
Layer_0
  10
203.65506
  20
62.536388
  0
VERTEX
  5
eb
  8
Layer_0
  10
203.65463
  20
19.706367
  42
-0.16764881
  0
VERTEX
  5
ec
  8
Layer_0
  10
201.52734
  20
13.540388
  0
VERTEX
  5
ed
  8
Layer_0
  10
199.98457
  20
11.964899
  42
-0.17305052
  0
VERTEX
  5
ee
  8
Layer_0
  10
193.65463
  20
9.7064667
  0
VERTEX
  5
ef
  8
Layer_0
  10
191.65463
  20
9.7064667
  0
VERTEX
  5
f0
  8
Layer_0
  10
191.65463
  20
19.706467
  0
VERTEX
  5
f1
  8
Layer_0
  10
189.55464
  20
19.706467
  0
VERTEX
  5
f2
  8
Layer_0
  10
189.65028
  20
9.7064667
  0
VERTEX
  5
f3
  8
Layer_0
  10
185.64592
  20
9.7064667
  42
-0.14936976
  0
VERTEX
  5
f4
  8
Layer_0
  10
173.62894
  20
13.378342
  42
0.011321288
  0
VERTEX
  5
f5
  8
Layer_0
  10
162.72748
  20
20.384438
  42
0.029206411
  0
VERTEX
  5
f6
  8
Layer_0
  10
142.00691
  20
31.542948
  42
0.036357834
  0
VERTEX
  5
f7
  8
Layer_0
  10
125.63156
  20
37.765808
  42
0.049481801
  0
VERTEX
  5
f8
  8
Layer_0
  10
111.38902
  20
40.538963
  42
0.070441895
  0
VERTEX
  5
f9
  8
Layer_0
  10
97.622208
  20
39.884109
  42
0.10741139
  0
VERTEX
  5
fa
  8
Layer_0
  10
80.646629
  20
32.473747
  0
VERTEX
  5
fb
  8
Layer_0
  10
74.500671
  20
40.414574
  0
VERTEX
  5
fc
  8
Layer_0
  10
72.839966
  20
39.129242
  0
VERTEX
  5
fd
  8
Layer_0
  10
78.960594
  20
31.221148
  42
0.014086363
  0
VERTEX
  5
fe
  8
Layer_0
  10
76.606224
  20
29.286148
  0
VERTEX
  5
ff
  8
Layer_0
  10
77.378967
  20
29.997023
  0
VERTEX
  5
100
  8
Layer_0
  10
75.820168
  20
28.589712
  0
VERTEX
  5
101
  8
Layer_0
  10
74.580685
  20
27.438118
  0
VERTEX
  5
102
  8
Layer_0
  10
73.35622
  20
26.234187
  0
VERTEX
  5
103
  8
Layer_0
  10
72.146929
  20
24.978095
  0
VERTEX
  5
104
  8
Layer_0
  10
70.952966
  20
23.670017
  0
VERTEX
  5
105
  8
Layer_0
  10
69.774487
  20
22.310128
  0
VERTEX
  5
106
  8
Layer_0
  10
68.611648
  20
20.898601
  0
VERTEX
  5
107
  8
Layer_0
  10
67.464604
  20
19.435613
  0
VERTEX
  5
108
  8
Layer_0
  10
66.333511
  20
17.921337
  0
SEQEND
  0
POLYLINE
  5
10a
  8
Layer_0
  62
0
  66
1
  10
0
  20
0
  30
0
  0
VERTEX
  5
10a
  8
Layer_0
  10
18.338903
  20
68.824783
  42
-0.096395294
  0
VERTEX
  5
10b
  8
Layer_0
  10
16.757324
  20
70.914413
  42
-0.056297755
  0
VERTEX
  5
10c
  8
Layer_0
  10
15.072158
  20
75.545883
  42
-0.039433946
  0
VERTEX
  5
10d
  8
Layer_0
  10
13.444856
  20
85.524994
  42
-0.068854537
  0
VERTEX
  5
10e
  8
Layer_0
  10
15.095048
  20
118.78854
  42
-0.040036142
  0
VERTEX
  5
10f
  8
Layer_0
  10
18.318092
  20
130.51031
  42
-0.055576548
  0
VERTEX
  5
110
  8
Layer_0
  10
22.79595
  20
139.6559
  42
-0.076019334
  0
VERTEX
  5
111
  8
Layer_0
  10
28.221008
  20
145.88144
  42
-0.19867011
  0
VERTEX
  5
112
  8
Layer_0
  10
42.160618
  20
150.30325
  42
-0.084341225
  0
VERTEX
  5
113
  8
Layer_0
  10
51.232605
  20
147.95621
  42
-0.12594293
  0
VERTEX
  5
114
  8
Layer_0
  10
67.173256
  20
135.37401
  42
-0.073013725
  0
VERTEX
  5
115
  8
Layer_0
  10
70.382187
  20
129.59537
  42
-0.11532158
  0
VERTEX
  5
116
  8
Layer_0
  10
71.093094
  20
124.37811
  42
-0.12693025
  0
VERTEX
  5
117
  8
Layer_0
  10
69.183029
  20
119.57792
  42
-0.05536834
  0
VERTEX
  5
118
  8
Layer_0
  10
66.008492
  20
116.08296
  42
-0.020004613
  0
VERTEX
  5
119
  8
Layer_0
  10
61.390392
  20
112.28925
  0
VERTEX
  5
11a
  8
Layer_0
  10
58.742065
  20
110.25053
  42
0.02857928
  0
VERTEX
  5
11b
  8
Layer_0
  10
48.677197
  20
101.71145
  42
0.04125618
  0
VERTEX
  5
11c
  8
Layer_0
  10
37.653614
  20
89.043533
  42
0.010112267
  0
VERTEX
  5
11d
  8
Layer_0
  10
30.152166
  20
78.339905
  0
VERTEX
  5
11e
  8
Layer_0
  10
29.636583
  20
77.590912
  42
-0.022017722
  0
VERTEX
  5
11f
  8
Layer_0
  10
25.59289
  20
72.099625
  42
-0.057495009
  0
VERTEX
  5
120
  8
Layer_0
  10
22.686535
  20
69.172745
  42
-0.11554099
  0
VERTEX
  5
121
  8
Layer_0
  10
20.6458
  20
68.179657
  42
-0.23172785
  0
VERTEX
  5
122
  8
Layer_0
  10
18.338903
  20
68.824783
  0
SEQEND
  0
POLYLINE
  5
124
  8
Layer_0
  62
0
  66
1
  10
0
  20
0
  30
0
  0
VERTEX
  5
124
  8
Layer_0
  10
88.247391
  20
142.10855
  42
-0.055472183
  0
VERTEX
  5
125
  8
Layer_0
  10
80.437828
  20
145.74759
  42
-0.046134872
  0
VERTEX
  5
126
  8
Layer_0
  10
69.413506
  20
153.94127
  42
-0.047950159
  0
VERTEX
  5
127
  8
Layer_0
  10
57.596302
  20
166.52795
  42
-0.044393458
  0
VERTEX
  5
128
  8
Layer_0
  10
53.521393
  20
172.83548
  42
-0.068498262
  0
VERTEX
  5
129
  8
Layer_0
  10
52.076157
  20
176.72633
  42
-0.1268233
  0
VERTEX
  5
12a
  8
Layer_0
  10
52.137039
  20
179.28603
  42
-0.22012164
  0
VERTEX
  5
12b
  8
Layer_0
  10
54.091187
  20
181.31995
  42
-0.087609807
  0
VERTEX
  5
12c
  8
Layer_0
  10
57.268219
  20
181.97987
  42
-0.041357424
  0
VERTEX
  5
12d
  8
Layer_0
  10
62.039722
  20
181.80376
  42
-0.019420968
  0
VERTEX
  5
12e
  8
Layer_0
  10
71.31144
  20
180.35338
  42
-0.00056949801
  0
VERTEX
  5
12f
  8
Layer_0
  10
79.356949
  20
178.82098
  0
VERTEX
  5
130
  8
Layer_0
  10
81.214081
  20
178.47305
  42
0.01888417
  0
VERTEX
  5
131
  8
Layer_0
  10
97.856827
  20
175.91588
  42
0.016050167
  0
VERTEX
  5
132
  8
Layer_0
  10
110.53953
  20
174.93378
  0
VERTEX
  5
133
  8
Layer_0
  10
113.14839
  20
174.80698
  42
-0.022843482
  0
VERTEX
  5
134
  8
Layer_0
  10
119.29684
  20
174.32816
  42
-0.068550904
  0
VERTEX
  5
135
  8
Layer_0
  10
121.89036
  20
173.65027
  42
-0.17156156
  0
VERTEX
  5
136
  8
Layer_0
  10
123.25964
  20
172.45154
  42
-0.15754464
  0
VERTEX
  5
137
  8
Layer_0
  10
123.47163
  20
170.59872
  42
-0.066990022
  0
VERTEX
  5
138
  8
Layer_0
  10
122.50104
  20
167.68103
  42
-0.031828809
  0
VERTEX
  5
139
  8
Layer_0
  10
119.07275
  20
161.60939
  42
-0.024528458
  0
VERTEX
  5
13a
  8
Layer_0
  10
112.25941
  20
151.90903
  42
-0.045229439
  0
VERTEX
  5
13b
  8
Layer_0
  10
106.7328
  20
145.94296
  42
-0.074692345
  0
VERTEX
  5
13c
  8
Layer_0
  10
101.40679
  20
142.42082
  42
-0.13606154
  0
VERTEX
  5
13d
  8
Layer_0
  10
92.82798
  20
141.1051
  42
-0.050895563
  0
VERTEX
  5
13e
  8
Layer_0
  10
88.247391
  20
142.10855
  0
SEQEND
  0
POLYLINE
  5
140
  8
Layer_0
  62
0
  66
1
  10
0
  20
0
  30
0
  0
VERTEX
  5
140
  8
Layer_0
  10
139.6665
  20
210.07866
  42
-0.23959793
  0
VERTEX
  5
141
  8
Layer_0
  10
155.82542
  20
218.29353
  0
VERTEX
  5
142
  8
Layer_0
  10
171.65636
  20
218.29353
  42
-0.41421361
  0
VERTEX
  5
143
  8
Layer_0
  10
181.65636
  20
208.29353
  0
VERTEX
  5
144
  8
Layer_0
  10
181.65636
  20
200.51938
  0
VERTEX
  5
145
  8
Layer_0
  10
171.65636
  20
200.51938
  0
VERTEX
  5
146
  8
Layer_0
  10
171.65636
  20
198.41937
  0
VERTEX
  5
147
  8
Layer_0
  10
181.65636
  20
198.41937
  0
VERTEX
  5
148
  8
Layer_0
  10
181.65636
  20
184.64522
  42
-0.19891237
  0
VERTEX
  5
149
  8
Layer_0
  10
177.26295
  20
174.03862
  0
VERTEX
  5
14a
  8
Layer_0
  10
169.72939
  20
166.50504
  42
-0.016418329
  0
VERTEX
  5
14b
  8
Layer_0
  10
167.2812
  20
164.79572
  42
-0.053327635
  0
VERTEX
  5
14c
  8
Layer_0
  10
163.4001
  20
162.75421
  42
-0.18845102
  0
VERTEX
  5
14d
  8
Layer_0
  10
158.02296
  20
162.72653
  42
-0.2579011
  0
VERTEX
  5
14e
  8
Layer_0
  10
157.37862
  20
163.44795
  42
-0.25789396
  0
VERTEX
  5
14f
  8
Layer_0
  10
157.64648
  20
164.3774
  0
VERTEX
  5
150
  8
Layer_0
  10
159.44846
  20
166.17935
  0
VERTEX
  5
151
  8
Layer_0
  10
156.01898
  20
169.60883
  0
VERTEX
  5
152
  8
Layer_0
  10
163.09006
  20
176.67989
  0
VERTEX
  5
153
  8
Layer_0
  10
161.60513
  20
178.16481
  0
VERTEX
  5
154
  8
Layer_0
  10
154.53406
  20
171.09375
  0
VERTEX
  5
155
  8
Layer_0
  10
148.84186
  20
176.78596
  0
VERTEX
  5
156
  8
Layer_0
  10
90.658859
  20
118.60298
  0
VERTEX
  5
157
  8
Layer_0
  10
83.587791
  20
125.67405
  0
VERTEX
  5
158
  8
Layer_0
  10
82.102867
  20
124.18913
  0
VERTEX
  5
159
  8
Layer_0
  10
89.173935
  20
117.11806
  0
VERTEX
  5
15a
  8
Layer_0
  10
19.237032
  20
47.181168
  0
VERTEX
  5
15b
  8
Layer_0
  10
12.165966
  20
54.252243
  0
VERTEX
  5
15c
  8
Layer_0
  10
10.681042
  20
52.767319
  0
VERTEX
  5
15d
  8
Layer_0
  10
17.75211
  20
45.696243
  0
VERTEX
  5
15e
  8
Layer_0
  10
4.050755
  20
31.994888
  42
-0.30334725
  0
VERTEX
  5
15f
  8
Layer_0
  10
2.9609601
  20
31.778122
  42
-0.30334699
  0
VERTEX
  5
160
  8
Layer_0
  10
2.3436482
  20
32.702011
  0
VERTEX
  5
161
  8
Layer_0
  10
2.3449337
  20
163.36363
  0
VERTEX
  5
162
  8
Layer_0
  10
12.344934
  20
163.36353
  0
VERTEX
  5
163
  8
Layer_0
  10
12.344954
  20
165.46353
  0
VERTEX
  5
164
  8
Layer_0
  10
2.3449545
  20
165.46362
  0
VERTEX
  5
165
  8
Layer_0
  10
2.345376
  20
208.29364
  42
-0.16764881
  0
VERTEX
  5
166
  8
Layer_0
  10
4.4726715
  20
214.45963
  0
VERTEX
  5
167
  8
Layer_0
  10
6.0154376
  20
216.03511
  42
-0.17305052
  0
VERTEX
  5
168
  8
Layer_0
  10
12.345377
  20
218.29355
  0
VERTEX
  5
169
  8
Layer_0
  10
14.345377
  20
218.29355
  0
VERTEX
  5
16a
  8
Layer_0
  10
14.345376
  20
208.29355
  0
VERTEX
  5
16b
  8
Layer_0
  10
16.445375
  20
208.29355
  0
VERTEX
  5
16c
  8
Layer_0
  10
16.349739
  20
218.29355
  0
VERTEX
  5
16d
  8
Layer_0
  10
20.354099
  20
218.29355
  42
-0.14936976
  0
VERTEX
  5
16e
  8
Layer_0
  10
32.371086
  20
214.62167
  42
0.011321288
  0
VERTEX
  5
16f
  8
Layer_0
  10
43.272533
  20
207.61557
  42
0.029206411
  0
VERTEX
  5
170
  8
Layer_0
  10
63.993103
  20
196.45706
  42
0.036357834
  0
VERTEX
  5
171
  8
Layer_0
  10
80.368454
  20
190.23421
  42
0.049481801
  0
VERTEX
  5
172
  8
Layer_0
  10
94.610992
  20
187.46104
  42
0.070441895
  0
VERTEX
  5
173
  8
Layer_0
  10
108.37781
  20
188.11589
  42
0.10741139
  0
VERTEX
  5
174
  8
Layer_0
  10
125.35339
  20
195.52626
  0
VERTEX
  5
175
  8
Layer_0
  10
131.49934
  20
187.58543
  0
VERTEX
  5
176
  8
Layer_0
  10
133.16005
  20
188.87076
  0
VERTEX
  5
177
  8
Layer_0
  10
127.03942
  20
196.77885
  42
0.014086363
  0
VERTEX
  5
178
  8
Layer_0
  10
129.3938
  20
198.71385
  0
VERTEX
  5
179
  8
Layer_0
  10
128.62105
  20
198.00298
  0
VERTEX
  5
17a
  8
Layer_0
  10
130.17984
  20
199.41029
  0
VERTEX
  5
17b
  8
Layer_0
  10
131.41933
  20
200.56189
  0
VERTEX
  5
17c
  8
Layer_0
  10
132.64379
  20
201.76582
  0
VERTEX
  5
17d
  8
Layer_0
  10
133.85309
  20
203.02191
  0
VERTEX
  5
17e
  8
Layer_0
  10
135.04705
  20
204.32999
  0
VERTEX
  5
17f
  8
Layer_0
  10
136.22553
  20
205.68988
  0
VERTEX
  5
180
  8
Layer_0
  10
137.38837
  20
207.1014
  0
VERTEX
  5
181
  8
Layer_0
  10
138.53541
  20
208.56439
  0
VERTEX
  5
182
  8
Layer_0
  10
139.6665
  20
210.07867
  0
SEQEND
  0
ENDSEC
  0
EOF
