0
SECTION
2
HEADER
9
$INSUNITS
70
4
9
$ACADVER
1
AC1014
9
$HANDSEED
5
FFFF
0
ENDSEC
0
SECTION
2
TABLES
0
TABLE
2
VPORT
5
8
100
AcDbSymbolTable
0
ENDTAB
0
TABLE
2
LTYPE
5
5
100
AcDbSymbolTable
0
LTYPE
5
14
100
AcDbSymbolTableRecord
100
AcDbLinetypeTableRecord
2
BYBLOCK
70
0
0
LTYPE
5
15
100
AcDbSymbolTableRecord
100
AcDbLinetypeTableRecord
2
BYLAYER
70
0
0
ENDTAB
0
TABLE
2
LAYER
5
2
100
AcDbSymbolTable
70
2
0
LAYER
5
50
100
AcDbSymbolTableRecord
100
AcDbLayerTableRecord
2
0
70
0
6
CONTINUOUS
0
ENDTAB
0
TABLE
2
STYLE
5
3
100
AcDbSymbolTable
70
1
0
STYLE
5
11
100
AcDbSymbolTableRecord
100
AcDbTextStyleTableRecord
2
STANDARD
70
0
0
ENDTAB
0
TABLE
2
VIEW
5
6
100
AcDbSymbolTable
70
0
0
ENDTAB
0
TABLE
2
UCS
5
7
100
AcDbSymbolTable
70
0
0
ENDTAB
0
TABLE
2
APPID
5
9
100
AcDbSymbolTable
70
2
0
APPID
5
12
100
AcDbSymbolTableRecord
100
AcDbRegAppTableRecord
2
ACAD
70
0
0
ENDTAB
0
TABLE
2
DIMSTYLE
5
A
100
AcDbSymbolTable
70
1
0
ENDTAB
0
TABLE
2
BLOCK_RECORD
5
1
100
AcDbSymbolTable
70
1
0
BLOCK_RECORD
5
1F
100
AcDbSymbolTableRecord
100
AcDbBlockTableRecord
2
*MODEL_SPACE
0
BLOCK_RECORD
5
1B
100
AcDbSymbolTableRecord
100
AcDbBlockTableRecord
2
*PAPER_SPACE
0
ENDTAB
0
ENDSEC
0
SECTION
2
BLOCKS
0
BLOCK
5
20
100
AcDbEntity
100
AcDbBlockBegin
2
*MODEL_SPACE
0
ENDBLK
5
21
100
AcDbEntity
100
AcDbBlockEnd
0
BLOCK
5
1C
100
AcDbEntity
100
AcDbBlockBegin
2
*PAPER_SPACE
0
ENDBLK
5
1D
100
AcDbEntity
100
AcDbBlockEnd
0
ENDSEC
0
SECTION
2
ENTITIES
0
LWPOLYLINE
5
100
100
AcDbEntity
8
0
100
AcDbPolyline
90
27
70
1
43
0.0
10
-40.830488960137316
20
-7.8852416505375658
42
0.41421356237309315
10
-40.400414169674981
20
-8.4465220391213691
10
-38.913381401105781
20
-8.6433304363035788
10
-39.680914065672745
20
-14.442606480920738
10
-13.919887779986734
20
-14.442606480920725
10
-14.258821257730027
20
1.358536450744996
10
-12.739170812869901
20
1.3911328529456495
42
0.41421356237309359
10
-12.250008298837177
20
1.9017403684261638
10
-12.430146310998701
20
10.299808616337383
42
0.41421356237309098
10
-12.940753826479209
20
10.788971130370097
10
-14.460404271339334
20
10.756374728169442
10
-14.682216973873317
20
21.097324935080355
10
-18.961752326634919
20
21.097324935080355
10
-18.961752326634908
20
22.597324935080358
42
0.41421356237310414
10
-19.461752326634926
20
23.097324935080362
10
-28.17721345746163
20
23.097324935080351
42
0.41421356237309243
10
-28.677213457461626
20
22.597324935080355
10
-28.677213457461622
20
21.097324935080355
10
-34.977213457461652
20
21.097324935080355
10
-36.464246226030838
20
21.294133332262565
42
0.41421356237309315
10
-37.025526614614634
20
20.864058541800247
10
-38.206376997707878
20
11.941861930385059
42
0.41421356237309731
10
-37.77630220724555
20
11.380581541801265
10
-36.289269438676364
20
11.183773144619053
10
-37.601325419891083
20
1.2702213541577345
10
-39.088358188460269
20
1.4670297513399406
42
0.4142135623731007
10
-39.649638577044072
20
1.0369549608776112
0
ELLIPSE
5
101
100
AcDbEntity
8
0
100
AcDbEllipse
10
29.04537298182408
20
24.405081641921701
30
-1.7763568394002505e-14
11
-0.010722500723940312
21
0.49988501475661884
31
0.0
40
0.97084804012529791
41
4.7338356258894549
42
6.3046319526843453
0
LINE
5
102
100
AcDbEntity
8
0
100
AcDbLine
10
29.024245422119954
20
24.904628457154132
30
-1.7790504961780241e-14
11
20.876735389162555
21
24.549685454124702
31
-1.7824283715661693e-14
0
ELLIPSE
5
103
100
AcDbEntity
8
0
100
AcDbEllipse
10
20.897862948866674
20
24.050138638892253
30
0
11
-0.010722500723897939
21
0.49988501475661984
31
0.0
40
0.97084804012529902
41
0.021446645504821824
42
1.5922429722997262
0
LINE
5
104
100
AcDbEntity
8
0
100
AcDbLine
10
20.412892113571587
20
24.02901107918813
30
-1.6206243720515609e-17
11
20.476274792684009
21
22.530370633490818
31
-1.7763568394002505e-14
0
LINE
5
105
100
AcDbEntity
8
0
100
AcDbLine
10
20.476274792684009
20
22.530370633490818
30
-1.7763568394002505e-14
11
12.13477642560855
21
22.166976606579727
31
-1.7763568394002505e-14
0
LINE
5
106
100
AcDbEntity
8
0
100
AcDbLine
10
12.13477642560855
20
22.166976606579727
30
-1.7763568394002505e-14
11
12.071393746496151
21
23.665617052277035
31
-1.7728873924482969e-14
0
ELLIPSE
5
107
100
AcDbEntity
8
0
100
AcDbEllipse
10
11.58642291120106
20
23.644489492572909
30
-1.7763568394002505e-14
11
-0.010722500723940275
21
0.49988501475661884
31
0.0
40
0.97084804012529802
41
4.7338356258894407
42
6.304631952684363
0
LINE
5
108
100
AcDbEntity
8
0
100
AcDbLine
10
11.565295351496918
20
24.14403630780534
30
-1.7777095367465657e-14
11
5.9679222226154582
21
23.900188995018375
31
-1.7945714358980069e-14
0
ELLIPSE
5
109
100
AcDbEntity
8
0
100
AcDbEllipse
10
5.9890497823195821
20
23.40064217978594
30
-1.7763568394002505e-14
11
-0.010722500723900293
21
0.49988501475661984
31
0.0
40
0.9708480401252868
41
0.021446645504824512
42
1.5922429722997262
0
LINE
5
110
100
AcDbEntity
8
0
100
AcDbLine
10
5.5040789470245048
20
23.379514620081814
30
-1.7779687499241059e-14
11
5.5674616261369225
21
21.880874174384498
31
-3.4694469519536142e-17
0
LINE
5
111
100
AcDbEntity
8
0
100
AcDbLine
10
5.5674616261369225
20
21.880874174384498
30
-3.4694469519536142e-17
11
-2.7740367409385303
21
21.517480147473407
31
-1.7737547541862853e-14
0
LINE
5
112
100
AcDbEntity
8
0
100
AcDbLine
10
-2.7740367409385303
20
21.517480147473407
30
-1.7737547541862853e-14
11
-2.8374194200509288
21
23.016120593170722
31
-1.7694179454963432e-14
0
ELLIPSE
5
113
100
AcDbEntity
8
0
100
AcDbEllipse
10
-3.3223902553460283
20
22.994993033466578
30
0
11
-0.010722500723944987
21
0.4998850147566189
31
0.0
40
0.9708480401252978
41
4.7338356258894692
42
6.3046319526843542
0
LINE
5
114
100
AcDbEntity
8
0
100
AcDbLine
10
-3.3435178150501699
20
23.494539848699013
30
6.0946865599266095e-19
11
-11.491027848007553
21
23.139596845669583
31
-1.7459991785706563e-14
0
ELLIPSE
5
115
100
AcDbEntity
8
0
100
AcDbEllipse
10
-11.469900288303441
20
22.640050030437145
30
-1.7763568394002505e-14
11
-0.010722500723897943
21
0.49988501475662001
31
0.0
40
0.97084804012529902
41
0.021446645504808379
42
1.5922429722997404
0
LINE
5
116
100
AcDbEntity
8
0
100
AcDbLine
10
-11.954871123598526
20
22.618922470733018
30
-1.775165870271733e-14
11
-11.891488444486116
21
21.120282025035714
31
-6.9388939039072284e-17
0
LINE
5
117
100
AcDbEntity
8
0
100
AcDbLine
10
-11.891488444486116
20
21.120282025035714
30
-6.9388939039072284e-17
11
-12.182470945663153
21
21.107605489213231
31
5.1499603193061461e-18
0
LINE
5
118
100
AcDbEntity
8
0
100
AcDbLine
10
-12.182470945663153
20
21.107605489213231
30
5.1499603193061461e-18
11
-13.638408106256572
21
21.076375732774125
31
-1.7702853072343316e-14
0
ELLIPSE
5
119
100
AcDbEntity
8
0
100
AcDbEllipse
10
-13.627685605532672
20
20.57649071801751
30
-1.7763568394002505e-14
11
-0.010722500723902189
21
0.49988501475661978
31
0.0
40
0.9708480401253009
41
6.2831853071795791
42
7.8539816339744828
0
LINE
5
120
100
AcDbEntity
8
0
100
AcDbLine
10
-14.112997992397144
20
20.566080799204464
30
-1.7729674817155424e-14
11
-13.919992979366938
21
11.56815053358531
31
-1.7763568394002505e-14
0
ELLIPSE
5
121
100
AcDbEntity
8
0
100
AcDbEllipse
10
-13.434680592502485
20
11.578560452398355
30
-1.7763568394002505e-14
11
0.010722500723899813
21
-0.49988501475661978
31
0.0
40
0.97084804012529757
41
4.7123889803846968
42
6.2831853071795898
0
LINE
5
122
100
AcDbEntity
8
0
100
AcDbLine
10
-13.423958091778584
20
11.078675437641735
30
-1.7763568394002505e-14
11
-11.968020931185164
21
11.109905194080852
31
-1.7726705520137997e-14
0
LINE
5
123
100
AcDbEntity
8
0
100
AcDbLine
10
-11.968020931185164
20
11.109905194080852
30
-1.7726705520137997e-14
11
-11.753570916707174
21
1.1122048989484634
31
-1.7486012637846216e-14
0
LINE
5
124
100
AcDbEntity
8
0
100
AcDbLine
10
-11.753570916707174
20
1.1122048989484634
30
-1.7486012637846216e-14
11
-13.20950807730058
21
1.0809751425093375
31
-1.776465259617499e-14
0
ELLIPSE
5
125
100
AcDbEntity
8
0
100
AcDbEllipse
10
-13.198785576576695
20
0.58109012775271918
30
0
11
-0.010722500723898217
21
0.49988501475661984
31
0.0
40
0.9708480401253009
41
6.2831853071795614
42
7.8539816339744828
0
LINE
5
126
100
AcDbEntity
8
0
100
AcDbLine
10
-13.684097963441166
20
0.57068020893968052
30
-8.2102453232057369e-18
11
-13.491092950410955
21
-8.4272500566794832
31
-1.7486012637846216e-14
0
ELLIPSE
5
127
100
AcDbEntity
8
0
100
AcDbEllipse
10
-13.005780563546496
20
-8.4168401378664406
30
0
11
0.010722500723900076
21
-0.49988501475661978
31
0.0
40
0.9708480401252978
41
4.7123889803846968
42
6.2831853071795969
0
LINE
5
128
100
AcDbEntity
8
0
100
AcDbLine
10
-12.99505806282259
20
-8.9167251526230604
30
-1.3877787807814546e-17
11
-11.539120902229174
21
-8.8854953961839414
31
-1.779609445917707e-14
0
LINE
5
129
100
AcDbEntity
8
0
100
AcDbLine
10
-11.539120902229174
20
-8.8854953961839414
30
-1.779609445917707e-14
11
-11.420141751776542
21
-14.432325926787845
31
1.3877787807814457e-16
0
LINE
5
130
100
AcDbEntity
8
0
100
AcDbLine
10
-11.420141751776542
20
-14.432325926787845
30
1.3877787807814457e-16
11
32.361586213387241
21
-12.524992528128324
31
-1.5057399771478686e-14
0
LINE
5
131
100
AcDbEntity
8
0
100
AcDbLine
10
32.361586213387241
20
-12.524992528128324
30
-1.5057399771478686e-14
11
29.884708997408627
21
22.940245291751022
31
-3.4416913763379853e-14
0
LINE
5
132
100
AcDbEntity
8
0
100
AcDbLine
10
29.884708997408627
20
22.940245291751022
30
-3.4416913763379853e-14
11
29.593726496231582
21
22.927568755928533
31
-1.7764923646718112e-14
0
LINE
5
133
100
AcDbEntity
8
0
100
AcDbLine
10
29.593726496231582
20
22.927568755928533
30
-1.7764923646718112e-14
11
29.530343817119164
21
24.426209201625831
31
-1.7802048337942188e-14
0
ENDSEC
0
SECTION
2
OBJECTS
0
DICTIONARY
5
C
100
AcDbDictionary
3
ACAD_GROUP
350
D
3
ACAD_MLINESTYLE
350
17
0
DICTIONARY
5
D
100
AcDbDictionary
0
DICTIONARY
5
1A
330
C
100
AcDbDictionary
0
DICTIONARY
5
17
100
AcDbDictionary
0
ENDSEC
0
EOF
