0
SECTION
2
HEADER
9
$INSUNITS
70
4
9
$ACADVER
1
AC1014
9
$HANDSEED
5
FFFF
0
ENDSEC
0
SECTION
2
TABLES
0
TABLE
2
VPORT
5
8
100
AcDbSymbolTable
0
ENDTAB
0
TABLE
2
LTYPE
5
5
100
AcDbSymbolTable
0
LTYPE
5
14
100
AcDbSymbolTableRecord
100
AcDbLinetypeTableRecord
2
BYBLOCK
70
0
0
LTYPE
5
15
100
AcDbSymbolTableRecord
100
AcDbLinetypeTableRecord
2
BYLAYER
70
0
0
ENDTAB
0
TABLE
2
LAYER
5
2
100
AcDbSymbolTable
70
2
0
LAYER
5
50
100
AcDbSymbolTableRecord
100
AcDbLayerTableRecord
2
0
70
0
6
CONTINUOUS
0
ENDTAB
0
TABLE
2
STYLE
5
3
100
AcDbSymbolTable
70
1
0
STYLE
5
11
100
AcDbSymbolTableRecord
100
AcDbTextStyleTableRecord
2
STANDARD
70
0
0
ENDTAB
0
TABLE
2
VIEW
5
6
100
AcDbSymbolTable
70
0
0
ENDTAB
0
TABLE
2
UCS
5
7
100
AcDbSymbolTable
70
0
0
ENDTAB
0
TABLE
2
APPID
5
9
100
AcDbSymbolTable
70
2
0
APPID
5
12
100
AcDbSymbolTableRecord
100
AcDbRegAppTableRecord
2
ACAD
70
0
0
ENDTAB
0
TABLE
2
DIMSTYLE
5
A
100
AcDbSymbolTable
70
1
0
ENDTAB
0
TABLE
2
BLOCK_RECORD
5
1
100
AcDbSymbolTable
70
1
0
BLOCK_RECORD
5
1F
100
AcDbSymbolTableRecord
100
AcDbBlockTableRecord
2
*MODEL_SPACE
0
BLOCK_RECORD
5
1B
100
AcDbSymbolTableRecord
100
AcDbBlockTableRecord
2
*PAPER_SPACE
0
ENDTAB
0
ENDSEC
0
SECTION
2
BLOCKS
0
BLOCK
5
20
100
AcDbEntity
100
AcDbBlockBegin
2
*MODEL_SPACE
0
ENDBLK
5
21
100
AcDbEntity
100
AcDbBlockEnd
0
BLOCK
5
1C
100
AcDbEntity
100
AcDbBlockBegin
2
*PAPER_SPACE
0
ENDBLK
5
1D
100
AcDbEntity
100
AcDbBlockEnd
0
ENDSEC
0
SECTION
2
ENTITIES
0
LWPOLYLINE
5
100
100
AcDbEntity
8
0
100
AcDbPolyline
90
51
70
1
43
0.0
10
-52.209242668103464
20
-17.347991384511278
42
0.41421356237310014
10
-52.74468569467836
20
-17.809836342578716
10
-53.362909470141034
20
-26.187055413574353
42
0.41421356237308432
10
-52.901064512073582
20
-26.722498440149231
10
-51.405132535110084
20
-26.832895542910432
10
-52.185272061289169
20
-37.404148180119201
10
-53.681204038252659
20
-37.293751077358003
42
0.4142135623730791
10
-54.216647064827569
20
-37.755596035425455
10
-54.834870840290264
20
-46.132815106421063
42
0.41421356237309354
10
-54.373025882222791
20
-46.668258132995959
10
-52.877093905259294
20
-46.778655235757149
10
-53.657233431438385
20
-57.349907872965915
10
-55.15316540840189
20
-57.239510770204731
42
0.41421356237309581
10
-55.688608434976786
20
-57.701355728272155
10
-56.306832210439467
20
-66.078574799267756
42
0.41421356237311024
10
-55.844987252372022
20
-66.614017825842652
10
-54.349055275408503
20
-66.724414928603849
10
-55.129194801587587
20
-77.295667565812593
10
-56.625126778551085
20
-77.185270463051424
42
0.41421356237307427
10
-57.160569805125974
20
-77.647115421118855
10
-58.061577033634791
20
-89.856181518779039
10
-56.067001064350144
20
-90.003377655793898
10
63.396423998653226
20
-90.0033776557934
10
65.390780736305615
20
-89.853240375344342
10
64.470330691105019
20
-77.626392094705551
42
0.41421356237308471
10
63.934207186579656
20
-77.165337230404717
10
62.438439633340423
20
-77.277940190741518
10
61.642712071890202
20
-66.707849812339504
10
63.138479625129492
20
-66.595246852002717
42
0.41421356237309986
10
63.599534489430319
20
-66.059123347477382
10
62.968957936474027
20
-57.682825380492908
42
0.41421356237309948
10
62.432834431948692
20
-57.221770516192088
10
60.937066878709416
20
-57.334373476528881
10
60.141339317259224
20
-46.764283098126839
10
61.637106870498492
20
-46.651680137790059
42
0.41421356237308471
10
62.098161734799319
20
-46.115556633264703
10
61.467585181843063
20
-37.739258666280293
42
0.41421356237309281
10
60.931461677317706
20
-37.278203801979458
10
59.435694124078431
20
-37.390806762316231
10
58.639966562628231
20
-26.820716383914203
10
60.135734115867486
20
-26.708113423577423
42
0.41421356237309542
10
60.596788980168313
20
-26.171989919052056
10
59.966212427212078
20
-17.79569195206761
42
0.41421356237308804
10
59.430088922686707
20
-17.334637087766794
10
57.934321369447431
20
-17.447240048103573
10
57.19592652002806
20
-7.6387318709013527
42
0.39240033471071228
10
56.697290191627083
20
-7.1762661932361578
10
3.6030168033576437
20
-7.181272344818673
10
-49.490833907794482
20
-7.1862784565478091
42
0.39277140728373361
10
-49.989430756127788
20
-7.6494794200715246
10
-50.713310691139952
20
-17.458388487272469
0
LWPOLYLINE
5
101
100
AcDbEntity
8
0
100
AcDbPolyline
90
4
70
1
43
0.0
10
-59.419687327341855
20
-91.445370677256733
10
70.580312672658152
20
-91.445370677256733
10
70.580312672658152
20
-4.2147484949376235
10
-59.419687327341855
20
-4.2147484949376235
0
ENDSEC
0
SECTION
2
OBJECTS
0
DICTIONARY
5
C
100
AcDbDictionary
3
ACAD_GROUP
350
D
3
ACAD_MLINESTYLE
350
17
0
DICTIONARY
5
D
100
AcDbDictionary
0
DICTIONARY
5
1A
330
C
100
AcDbDictionary
0
DICTIONARY
5
17
100
AcDbDictionary
0
ENDSEC
0
EOF
