0
SECTION
2
HEADER
9
$INSUNITS
70
4
9
$ACADVER
1
AC1014
9
$HANDSEED
5
FFFF
0
ENDSEC
0
SECTION
2
TABLES
0
TABLE
2
VPORT
5
8
100
AcDbSymbolTable
0
ENDTAB
0
TABLE
2
LTYPE
5
5
100
AcDbSymbolTable
0
LTYPE
5
14
100
AcDbSymbolTableRecord
100
AcDbLinetypeTableRecord
2
BYBLOCK
70
0
0
LTYPE
5
15
100
AcDbSymbolTableRecord
100
AcDbLinetypeTableRecord
2
BYLAYER
70
0
0
ENDTAB
0
TABLE
2
LAYER
5
2
100
AcDbSymbolTable
70
2
0
LAYER
5
50
100
AcDbSymbolTableRecord
100
AcDbLayerTableRecord
2
0
70
0
6
CONTINUOUS
0
ENDTAB
0
TABLE
2
STYLE
5
3
100
AcDbSymbolTable
70
1
0
STYLE
5
11
100
AcDbSymbolTableRecord
100
AcDbTextStyleTableRecord
2
STANDARD
70
0
0
ENDTAB
0
TABLE
2
VIEW
5
6
100
AcDbSymbolTable
70
0
0
ENDTAB
0
TABLE
2
UCS
5
7
100
AcDbSymbolTable
70
0
0
ENDTAB
0
TABLE
2
APPID
5
9
100
AcDbSymbolTable
70
2
0
APPID
5
12
100
AcDbSymbolTableRecord
100
AcDbRegAppTableRecord
2
ACAD
70
0
0
ENDTAB
0
TABLE
2
DIMSTYLE
5
A
100
AcDbSymbolTable
70
1
0
ENDTAB
0
TABLE
2
BLOCK_RECORD
5
1
100
AcDbSymbolTable
70
1
0
BLOCK_RECORD
5
1F
100
AcDbSymbolTableRecord
100
AcDbBlockTableRecord
2
*MODEL_SPACE
0
BLOCK_RECORD
5
1B
100
AcDbSymbolTableRecord
100
AcDbBlockTableRecord
2
*PAPER_SPACE
0
ENDTAB
0
ENDSEC
0
SECTION
2
BLOCKS
0
BLOCK
5
20
100
AcDbEntity
100
AcDbBlockBegin
2
*MODEL_SPACE
0
ENDBLK
5
21
100
AcDbEntity
100
AcDbBlockEnd
0
BLOCK
5
1C
100
AcDbEntity
100
AcDbBlockBegin
2
*PAPER_SPACE
0
ENDBLK
5
1D
100
AcDbEntity
100
AcDbBlockEnd
0
ENDSEC
0
SECTION
2
ENTITIES
0
LWPOLYLINE
5
100
100
AcDbEntity
8
0
100
AcDbPolyline
90
67
70
1
43
0.0
10
-25.870206116984566
20
27.894306687220599
42
0.4142135623730927
10
-26.5361386743701
20
28.132075122917918
10
-34.66944761211591
20
24.278598027724001
42
0.41421356237310297
10
-34.907216047813229
20
23.612665470338445
10
-34.264969865280911
20
22.257113980714148
10
-43.301979796109585
20
17.975472763831995
10
-43.94422597864191
20
19.331024253456292
42
0.41421356237310503
10
-44.610158536027441
20
19.568792689153625
10
-52.743467473773237
20
15.715315593959687
42
0.41421356237310314
10
-52.981235909470563
20
15.049383036574145
10
-52.338989726938252
20
13.693831546949847
10
-61.375999657766911
20
9.4121903300676948
10
-62.01824584029923
20
10.767741819691995
42
0.41421356237309498
10
-62.684178397684775
20
11.005510255389321
10
-70.817487335430584
20
7.152033160195379
42
0.41421356237310292
10
-71.055255771127904
20
6.4861006028098389
10
-70.413009588595585
20
5.1305491131855465
10
-79.450019519424245
20
0.84890789630339358
10
-80.092265701956578
20
2.2044593859276986
42
0.41421356237307827
10
-80.758198259342123
20
2.4422278216250133
10
-88.89150719708789
20
-1.4112492735688975
42
0.41421356237309476
10
-89.129275632785209
20
-2.0771818309544883
10
-88.487029450252891
20
-3.4327333205787571
10
-98.281729092233988
20
-8.0733600339590996
42
0.80006912773990591
10
-98.067647031389882
20
-9.0252105305005301
10
80.613340801157875
20
-9.0252105305005283
10
82.596051159250123
20
-8.7627993342575863
10
81.933482973180375
20
-3.7566074328773311
42
0.41421356237310847
10
81.372202584596565
20
-3.3265326424150157
10
79.885169816027371
20
-3.523341039597212
10
78.494390475939767
20
6.9850238582917701
10
79.981423244508932
20
7.1818322554739762
42
0.41421356237308626
10
80.41149803497126
20
7.7431126440577804
10
79.309371010750908
20
16.070496148045279
42
0.41421356237310275
10
78.748090622167098
20
16.500570938507614
10
77.261057853597904
20
16.303762541325405
10
75.909640192946739
20
26.514720885500545
10
75.909996652533266
20
28.01472084314608
42
0.41421356237310281
10
75.410115486513618
20
28.51483964889011
10
69.864951760510365
20
28.516157400106707
42
0.41421356237310025
10
69.364832954766342
20
28.016276234087066
10
69.364476495179787
20
26.516276276441523
10
59.264477048611674
20
26.518676437593861
10
59.264833508198222
20
28.018676395239378
42
0.41421356237309243
10
58.76495234217856
20
28.518795200983398
10
49.564952906904942
20
28.520981486375089
42
0.41421356237309503
10
49.064834101160898
20
28.021100320355444
10
49.064477641574349
20
26.521100362709902
10
39.066302583700548
20
26.523476326341889
10
39.066659043287096
20
28.023476283987399
42
0.41421356237308982
10
38.566777877267455
20
28.523595089731426
10
29.564954036357705
20
28.525734280728155
42
0.41421356237310025
10
29.064835230613664
20
28.025853114708493
10
29.064478771027122
20
26.525853157062976
10
18.964155100509188
20
26.5282533952638
10
18.964511560095733
20
28.028253352909317
42
0.41421356237308593
10
18.464630394076096
20
28.52837215865334
10
9.3649551771049921
20
28.530534603024766
42
0.41421356237310869
10
8.8648363713609672
20
28.030653437005107
10
8.8644799117744206
20
26.530653479359586
10
-0.73551956303003929
20
26.532934820653097
10
-0.735163103443493
20
28.032934778298607
42
0.41421356237309687
10
-1.2350442694631525
20
28.533053584042626
10
-10.335078687833761
20
28.535216113774577
42
0.41421356237310281
10
-10.835197493577793
20
28.035334947754926
10
-10.835553953164336
20
26.535334990109398
10
-25.227959934452251
20
26.538755197596299
0
CIRCLE
5
101
100
AcDbEntity
8
0
100
AcDbCircle
10
13.650249569262316
20
-3.6906621811740958
30
1.7763568394002505e-14
40
1.0000000000000007
210
0
220
2.7755575615628926e-17
230
1
0
CIRCLE
5
102
100
AcDbEntity
8
0
100
AcDbCircle
10
40.173521043689661
20
-3.6943252542698524
30
8.8817841970012523e-15
40
0.99999999999999623
210
0
220
-2.775557561562892e-17
230
1
0
CIRCLE
5
103
100
AcDbEntity
8
0
100
AcDbCircle
10
69.024195730388783
20
-3.6983097601156234
30
8.8817841970012523e-15
40
1.0000000000000051
210
0
220
2.7755575615628926e-17
230
1
0
ENDSEC
0
SECTION
2
OBJECTS
0
DICTIONARY
5
C
100
AcDbDictionary
3
ACAD_GROUP
350
D
3
ACAD_MLINESTYLE
350
17
0
DICTIONARY
5
D
100
AcDbDictionary
0
DICTIONARY
5
1A
330
C
100
AcDbDictionary
0
DICTIONARY
5
17
100
AcDbDictionary
0
ENDSEC
0
EOF
