0
SECTION
2
HEADER
9
$INSUNITS
70
4
9
$ACADVER
1
AC1014
9
$HANDSEED
5
FFFF
0
ENDSEC
0
SECTION
2
TABLES
0
TABLE
2
VPORT
5
8
100
AcDbSymbolTable
0
ENDTAB
0
TABLE
2
LTYPE
5
5
100
AcDbSymbolTable
0
LTYPE
5
14
100
AcDbSymbolTableRecord
100
AcDbLinetypeTableRecord
2
BYBLOCK
70
0
0
LTYPE
5
15
100
AcDbSymbolTableRecord
100
AcDbLinetypeTableRecord
2
BYLAYER
70
0
0
ENDTAB
0
TABLE
2
LAYER
5
2
100
AcDbSymbolTable
70
2
0
LAYER
5
50
100
AcDbSymbolTableRecord
100
AcDbLayerTableRecord
2
0
70
0
6
CONTINUOUS
0
ENDTAB
0
TABLE
2
STYLE
5
3
100
AcDbSymbolTable
70
1
0
STYLE
5
11
100
AcDbSymbolTableRecord
100
AcDbTextStyleTableRecord
2
STANDARD
70
0
0
ENDTAB
0
TABLE
2
VIEW
5
6
100
AcDbSymbolTable
70
0
0
ENDTAB
0
TABLE
2
UCS
5
7
100
AcDbSymbolTable
70
0
0
ENDTAB
0
TABLE
2
APPID
5
9
100
AcDbSymbolTable
70
2
0
APPID
5
12
100
AcDbSymbolTableRecord
100
AcDbRegAppTableRecord
2
ACAD
70
0
0
ENDTAB
0
TABLE
2
DIMSTYLE
5
A
100
AcDbSymbolTable
70
1
0
ENDTAB
0
TABLE
2
BLOCK_RECORD
5
1
100
AcDbSymbolTable
70
1
0
BLOCK_RECORD
5
1F
100
AcDbSymbolTableRecord
100
AcDbBlockTableRecord
2
*MODEL_SPACE
0
BLOCK_RECORD
5
1B
100
AcDbSymbolTableRecord
100
AcDbBlockTableRecord
2
*PAPER_SPACE
0
ENDTAB
0
ENDSEC
0
SECTION
2
BLOCKS
0
BLOCK
5
20
100
AcDbEntity
100
AcDbBlockBegin
2
*MODEL_SPACE
0
ENDBLK
5
21
100
AcDbEntity
100
AcDbBlockEnd
0
BLOCK
5
1C
100
AcDbEntity
100
AcDbBlockBegin
2
*PAPER_SPACE
0
ENDBLK
5
1D
100
AcDbEntity
100
AcDbBlockEnd
0
ENDSEC
0
SECTION
2
ENTITIES
0
LWPOLYLINE
5
100
100
AcDbEntity
8
0
100
AcDbPolyline
90
62
70
1
43
0.0
10
-76.752067636001684
20
9.1730769833569621
42
0.41421356237309503
10
-77.380866263163
20
8.8496387566736576
10
-80.281790067704122
20
-0.19661135485027015
10
-78.377316360014859
20
-0.80733215580629902
10
-80.613340801157833
20
-7.7801579564686731
10
97.971541236129923
20
-7.7801579564686731
42
0.80015538860626823
10
98.185528236757847
20
-6.8282624336293107
10
88.40824688954757
20
-2.1984066283779402
10
89.05020789143137
20
-0.84272005985984744
42
0.41421356237308415
10
88.812299369219943
20
-0.17683753639254224
10
80.6781799581114
20
3.6749284749101974
42
0.4142135623730972
10
80.012297434644097
20
3.4370199526987664
10
79.370336432760297
20
2.0813333841806827
10
70.332425975973038
20
6.3610733967392994
10
70.974386977856824
20
7.716759965257399
42
0.41421356237308665
10
70.736478455645397
20
8.3826424887246951
10
62.602359044536854
20
12.234408500027438
42
0.41421356237309148
10
61.936476521069565
20
11.996499977816008
10
61.294515519185772
20
10.640813409297913
10
52.256605062398492
20
14.920553421856537
10
52.898566064282292
20
16.276239990374631
42
0.41421356237308632
10
52.660657542070851
20
16.942122513841923
10
44.526538130962301
20
20.793888525144673
42
0.41421356237309609
10
43.860655607495012
20
20.555980002933246
10
43.218694605611212
20
19.200293434415151
10
34.180784148823939
20
23.480033446973771
10
34.822745150707732
20
24.835720015491866
42
0.41421356237308693
10
34.584836628496298
20
25.501602538959162
10
26.450717217387755
20
29.353368550261905
42
0.41421356237308216
10
25.784834693920466
20
29.115460028050478
10
25.142873692036662
20
27.75977345953239
10
10.783495654325568
20
27.759773459532376
10
10.783495654325572
20
29.259773459532383
42
0.41421356237309243
10
10.283495654325572
20
29.759773459532379
10
1.2834956543255727
20
29.759773459532379
42
0.4142135623730957
10
0.78349565432557333
20
29.259773459532394
10
0.78349565432556845
20
27.759773459532376
10
-9.2165043456744318
20
27.75977345953239
10
-9.2165043456744282
20
29.259773459532404
42
0.4142135623730957
10
-9.7165043456744282
20
29.759773459532394
10
-18.716504345674426
20
29.759773459532397
42
0.41421356237309503
10
-19.216504345674426
20
29.259773459532422
10
-19.216504345674434
20
27.75977345953239
10
-29.21650434567443
20
27.759773459532401
10
-29.216504345674426
20
29.259773459532404
42
0.41421356237309243
10
-29.716504345674423
20
29.759773459532397
10
-38.71650434567443
20
29.759773459532404
42
0.41421356237309503
10
-39.216504345674423
20
29.259773459532418
10
-39.21650434567443
20
27.759773459532397
10
-49.21650434567443
20
27.759773459532411
10
-49.21650434567443
20
29.259773459532411
42
0.41421356237309243
10
-49.71650434567443
20
29.759773459532404
10
-58.71650434567443
20
29.759773459532404
42
0.41421356237309503
10
-59.21650434567443
20
29.259773459532411
10
-59.21650434567443
20
27.759773459532411
10
-69.216504345674423
20
27.759773459532411
10
-70.644859626441388
20
28.217814060249427
42
0.41421356237309587
10
-71.273658253602704
20
27.894375833566123
10
-74.021901857904822
20
19.324244148964514
42
0.41421356237309059
10
-73.698463631221514
20
18.695445521803201
10
-72.270108350454578
20
18.237404921086178
10
-75.323712355234719
20
8.7150363826399406
0
CIRCLE
5
101
100
AcDbEntity
8
0
100
AcDbCircle
10
9.5655357502974159
20
-3.7434762176007208
30
-1.7763568394002505e-14
40
1.0000000000000007
210
0
220
0
230
1
0
CIRCLE
5
102
100
AcDbEntity
8
0
100
AcDbCircle
10
-62.434464249702593
20
-3.7434762176007186
30
-1.7763568394002505e-14
40
0.99999999999999634
210
0
220
-2.775557561562892e-17
230
1
0
CIRCLE
5
103
100
AcDbEntity
8
0
100
AcDbCircle
10
57.565535750297421
20
-3.7434762176007252
30
-1.7763568394002505e-14
40
0.99999999999999634
210
0
220
-2.775557561562892e-17
230
1
0
CIRCLE
5
104
100
AcDbEntity
8
0
100
AcDbCircle
10
-14.434464249702588
20
-3.7434762176007199
30
-1.7763568394002505e-14
40
0.99999999999999867
210
0
220
0
230
1
0
CIRCLE
5
105
100
AcDbEntity
8
0
100
AcDbCircle
10
-38.434464249702593
20
-3.7434762176007199
30
-1.7763568394002505e-14
40
1.0000000000000007
210
0
220
0
230
1
0
CIRCLE
5
106
100
AcDbEntity
8
0
100
AcDbCircle
10
33.565535750297421
20
-3.7434762176007244
30
-1.7763568394002505e-14
40
1.0000000000000007
210
0
220
0
230
1
0
ENDSEC
0
SECTION
2
OBJECTS
0
DICTIONARY
5
C
100
AcDbDictionary
3
ACAD_GROUP
350
D
3
ACAD_MLINESTYLE
350
17
0
DICTIONARY
5
D
100
AcDbDictionary
0
DICTIONARY
5
1A
330
C
100
AcDbDictionary
0
DICTIONARY
5
17
100
AcDbDictionary
0
ENDSEC
0
EOF
