0
SECTION
2
HEADER
9
$INSUNITS
70
4
9
$ACADVER
1
AC1014
9
$HANDSEED
5
FFFF
0
ENDSEC
0
SECTION
2
TABLES
0
TABLE
2
VPORT
5
8
100
AcDbSymbolTable
0
ENDTAB
0
TABLE
2
LTYPE
5
5
100
AcDbSymbolTable
0
LTYPE
5
14
100
AcDbSymbolTableRecord
100
AcDbLinetypeTableRecord
2
BYBLOCK
70
0
0
LTYPE
5
15
100
AcDbSymbolTableRecord
100
AcDbLinetypeTableRecord
2
BYLAYER
70
0
0
ENDTAB
0
TABLE
2
LAYER
5
2
100
AcDbSymbolTable
70
2
0
LAYER
5
50
100
AcDbSymbolTableRecord
100
AcDbLayerTableRecord
2
0
70
0
6
CONTINUOUS
0
ENDTAB
0
TABLE
2
STYLE
5
3
100
AcDbSymbolTable
70
1
0
STYLE
5
11
100
AcDbSymbolTableRecord
100
AcDbTextStyleTableRecord
2
STANDARD
70
0
0
ENDTAB
0
TABLE
2
VIEW
5
6
100
AcDbSymbolTable
70
0
0
ENDTAB
0
TABLE
2
UCS
5
7
100
AcDbSymbolTable
70
0
0
ENDTAB
0
TABLE
2
APPID
5
9
100
AcDbSymbolTable
70
2
0
APPID
5
12
100
AcDbSymbolTableRecord
100
AcDbRegAppTableRecord
2
ACAD
70
0
0
ENDTAB
0
TABLE
2
DIMSTYLE
5
A
100
AcDbSymbolTable
70
1
0
ENDTAB
0
TABLE
2
BLOCK_RECORD
5
1
100
AcDbSymbolTable
70
1
0
BLOCK_RECORD
5
1F
100
AcDbSymbolTableRecord
100
AcDbBlockTableRecord
2
*MODEL_SPACE
0
BLOCK_RECORD
5
1B
100
AcDbSymbolTableRecord
100
AcDbBlockTableRecord
2
*PAPER_SPACE
0
ENDTAB
0
ENDSEC
0
SECTION
2
BLOCKS
0
BLOCK
5
20
100
AcDbEntity
100
AcDbBlockBegin
2
*MODEL_SPACE
0
ENDBLK
5
21
100
AcDbEntity
100
AcDbBlockEnd
0
BLOCK
5
1C
100
AcDbEntity
100
AcDbBlockBegin
2
*PAPER_SPACE
0
ENDBLK
5
1D
100
AcDbEntity
100
AcDbBlockEnd
0
ENDSEC
0
SECTION
2
ENTITIES
0
ARC
5
100
100
AcDbEntity
8
0
100
AcDbCircle
10
-58.507510085638444
20
24.730013169723083
30
0
40
0.50000000000820033
210
0
220
-0
230
1
100
AcDbArc
50
89.921590048808241
51
179.92159004881168
0
LINE
5
101
100
AcDbEntity
8
0
100
AcDbLine
10
-59.007509617440576
20
24.730697425416817
30
0
11
-59.02543069515481
21
11.635401978536104
31
0
0
ARC
5
102
100
AcDbEntity
8
0
100
AcDbCircle
10
-58.525431163360899
20
11.634717722842392
30
0
40
0.49999999999998462
210
0
220
0
230
1
100
AcDbArc
50
179.92159004881168
51
269.92159004880938
0
LINE
5
103
100
AcDbEntity
8
0
100
AcDbLine
10
-58.526115419054619
20
11.134718191048464
30
0
11
-57.026116823672837
21
11.132665423967303
31
0
0
LINE
5
104
100
AcDbEntity
8
0
100
AcDbLine
10
-57.026116823672837
20
11.132665423967303
30
0
11
-57.040759881806494
21
0.43268546317787093
31
0
0
LINE
5
105
100
AcDbEntity
8
0
100
AcDbLine
10
-57.040759881806494
20
0.43268546317787093
30
0
11
-58.540758477188263
21
0.43473823025903047
31
0
0
ARC
5
106
100
AcDbEntity
8
0
100
AcDbCircle
10
-58.54144273288199
20
-0.065261301534897564
30
0
40
0.50000000000000167
210
0
220
-0
230
1
100
AcDbArc
50
89.921590048808596
51
179.92159004881168
0
LINE
5
107
100
AcDbEntity
8
0
100
AcDbLine
10
-59.041442264675922
20
-0.064577045841175656
30
0
11
-59.052390344242028
21
-8.0645611268425661
31
0
0
ARC
5
108
100
AcDbEntity
8
0
100
AcDbCircle
10
-58.552390812448095
20
-8.0652453825362791
30
0
40
0.50000000000001132
210
0
220
0
230
1
100
AcDbArc
50
179.92159004881168
51
269.92159004880858
0
LINE
5
109
100
AcDbEntity
8
0
100
AcDbLine
10
-58.553075068141823
20
-8.5652449143302167
30
0
11
-57.05307647276004
21
-8.5672976814113717
31
0
0
LINE
5
110
100
AcDbEntity
8
0
100
AcDbLine
10
-57.05307647276004
20
-8.5672976814113717
30
0
11
-57.067719530893697
21
-19.267277642200803
31
0
0
LINE
5
111
100
AcDbEntity
8
0
100
AcDbLine
10
-57.067719530893697
20
-19.267277642200803
30
0
11
-58.567718126275466
21
-19.265224875119642
31
0
0
ARC
5
112
100
AcDbEntity
8
0
100
AcDbCircle
10
-58.568402381969193
20
-19.765224406913575
30
0
40
0.50000000000000455
210
0
220
-0
230
1
100
AcDbArc
50
89.921590048808596
51
179.92159004881168
0
LINE
5
113
100
AcDbEntity
8
0
100
AcDbLine
10
-59.068401913763118
20
-19.764540151219851
30
0
11
-59.080034248382205
21
-28.264523295809532
31
0
0
ARC
5
114
100
AcDbEntity
8
0
100
AcDbCircle
10
-58.580034716588266
20
-28.265207551503249
30
0
40
0.50000000000001132
210
0
220
0
230
1
100
AcDbArc
50
179.92159004881168
51
269.92159004880938
0
LINE
5
115
100
AcDbEntity
8
0
100
AcDbLine
10
-58.580718972281986
20
-28.76520708329717
30
0
11
-57.080720376900217
21
-28.767259850378334
31
0
0
LINE
5
116
100
AcDbEntity
8
0
100
AcDbLine
10
-57.080720376900217
20
-28.767259850378334
30
0
11
-57.095229080725517
21
-39.36906438947797
31
0
0
LINE
5
117
100
AcDbEntity
8
0
100
AcDbLine
10
-57.095229080725517
20
-39.36906438947797
30
0
11
-58.595227676107299
21
-39.367011622396802
31
0
0
ARC
5
118
100
AcDbEntity
8
0
100
AcDbCircle
10
-58.595911931801027
20
-39.867011154190727
30
0
40
0.49999999999999795
210
0
220
-0
230
1
100
AcDbArc
50
89.921590048808596
51
179.92159004881168
0
LINE
5
119
100
AcDbEntity
8
0
100
AcDbLine
10
-59.095911463594959
20
-39.866326898497007
30
0
11
-59.1074044505012
21
-48.26448583934117
31
0
0
ARC
5
120
100
AcDbEntity
8
0
100
AcDbCircle
10
-58.607404918707246
20
-48.26517009503489
30
0
40
0.50000000000002909
210
0
220
0
230
1
100
AcDbArc
50
179.92159004881168
51
269.92159004880693
0
LINE
5
121
100
AcDbEntity
8
0
100
AcDbLine
10
-58.608089174400988
20
-48.765169626828836
30
0
11
-57.108090579019219
21
-48.767222393909989
31
0
0
LINE
5
122
100
AcDbEntity
8
0
100
AcDbLine
10
-57.108090579019219
20
-48.767222393909989
30
0
11
-57.122870488163457
21
-59.567202167417079
31
0
0
LINE
5
123
100
AcDbEntity
8
0
100
AcDbLine
10
-57.122870488163457
20
-59.567202167417079
30
0
11
-58.622869083545261
21
-59.565149400335919
31
0
0
ARC
5
124
100
AcDbEntity
8
0
100
AcDbCircle
10
-58.623553339238981
20
-60.065148932129837
30
0
40
0.49999999999999345
210
0
220
-0
230
1
100
AcDbArc
50
89.921590048809406
51
179.92159004881168
0
LINE
5
125
100
AcDbEntity
8
0
100
AcDbLine
10
-59.123552871032899
20
-60.064464676436131
30
0
11
-59.135185205651965
21
-68.564447821025809
31
0
0
ARC
5
126
100
AcDbEntity
8
0
100
AcDbCircle
10
-58.635185673858025
20
-68.565132076719522
30
0
40
0.50000000000001132
210
0
220
0
230
1
100
AcDbArc
50
179.92159004881168
51
269.92159004880938
0
LINE
5
127
100
AcDbEntity
8
0
100
AcDbLine
10
-58.635869929551745
20
-69.065131608513454
30
0
11
-57.135871334169977
21
-69.067184375594607
31
0
0
LINE
5
128
100
AcDbEntity
8
0
100
AcDbLine
10
-57.135871334169977
20
-69.067184375594607
30
0
11
-57.145235321642637
21
-75.909640192946739
31
0
0
LINE
5
129
100
AcDbEntity
8
0
100
AcDbLine
10
-57.145235321642637
20
-75.909640192946739
30
0
11
-57.542881597434615
21
-77.355972602646801
31
0
0
ARC
5
130
100
AcDbEntity
8
0
100
AcDbCircle
10
-57.060770794201275
20
-77.488521361244125
30
0
40
0.49999999999998956
210
0
220
0
230
1
100
AcDbArc
50
164.62725263593359
51
254.62725263593401
0
LINE
5
131
100
AcDbEntity
8
0
100
AcDbLine
10
-57.193319552798599
20
-77.970632164477479
30
0
11
-52.372211520465079
21
-79.296119750450757
31
0
0
ARC
5
132
100
AcDbEntity
8
0
100
AcDbCircle
10
-52.239662761867748
20
-78.814008947217445
30
0
40
0.49999999999996386
210
0
220
0
230
1
100
AcDbArc
50
254.62725263593191
51
344.62725263593359
0
LINE
5
133
100
AcDbEntity
8
0
100
AcDbLine
10
-51.757551958634409
20
-78.946557705814769
30
0
11
-51.359905682842417
21
-77.500225296114706
31
0
0
LINE
5
134
100
AcDbEntity
8
0
100
AcDbLine
10
-51.359905682842417
20
-77.500225296114706
30
0
11
-41.413515179831862
21
-80.234828430614897
31
0
0
LINE
5
135
100
AcDbEntity
8
0
100
AcDbLine
10
-41.413515179831862
20
-80.234828430614897
30
0
11
-41.811161455623854
21
-81.681160840314945
31
0
0
ARC
5
136
100
AcDbEntity
8
0
100
AcDbCircle
10
-41.329050652390499
20
-81.813709598912268
30
0
40
0.50000000000000666
210
0
220
0
230
1
100
AcDbArc
50
164.62725263593401
51
254.62725263593282
0
LINE
5
137
100
AcDbEntity
8
0
100
AcDbLine
10
-41.461599410987837
20
-82.295820402145637
30
0
11
-36.640491378654325
21
-83.621307988118929
31
0
0
ARC
5
138
100
AcDbEntity
8
0
100
AcDbCircle
10
-36.507942620057001
20
-83.139197184885603
30
0
40
0.49999999999998834
210
0
220
0
230
1
100
AcDbArc
50
254.62725263593316
51
344.62725263593421
0
LINE
5
139
100
AcDbEntity
8
0
100
AcDbLine
10
-36.02583181682364
20
-83.271745943482927
30
0
11
-35.628185541031662
21
-81.825413533782864
31
0
0
LINE
5
140
100
AcDbEntity
8
0
100
AcDbLine
10
-35.628185541031662
20
-81.825413533782864
30
0
11
-25.630716620953486
21
-82.050391737328908
31
0
0
LINE
5
141
100
AcDbEntity
8
0
100
AcDbLine
10
-25.630716620953486
20
-82.050391737328908
30
0
11
-25.664463351485395
21
-83.550012075340646
31
0
0
ARC
5
142
100
AcDbEntity
8
0
100
AcDbCircle
10
-25.164589905481503
20
-83.561260985517947
30
0
40
0.49999999999998423
210
0
220
0
230
1
100
AcDbArc
50
178.71086107981483
51
268.71086107981642
0
LINE
5
143
100
AcDbEntity
8
0
100
AcDbLine
10
-25.175838815658786
20
-84.061134431521822
30
0
11
-18.177610571604063
21
-84.218619174004118
31
0
0
ARC
5
144
100
AcDbEntity
8
0
100
AcDbCircle
10
-18.166361661426748
20
-83.718745728000215
30
0
40
0.49999999999999789
210
0
220
0
230
1
100
AcDbArc
50
268.7108610798129
51
358.71086107981648
0
LINE
5
145
100
AcDbEntity
8
0
100
AcDbLine
10
-17.666488215422842
20
-83.729994638177502
30
0
11
-17.632741484890939
21
-82.230374300165749
31
0
0
LINE
5
146
100
AcDbEntity
8
0
100
AcDbLine
10
-17.632741484890939
20
-82.230374300165749
30
0
11
-10.263772320363101
21
-82.396202016948365
31
0
0
LINE
5
147
100
AcDbEntity
8
0
100
AcDbLine
10
-10.263772320363101
20
-82.396202016948365
30
0
11
-10.29751905089501
21
-83.895822354960089
31
0
0
ARC
5
148
100
AcDbEntity
8
0
100
AcDbCircle
10
-9.797645604891116
20
-83.90707126513739
30
0
40
0.49999999999998423
210
0
220
0
230
1
100
AcDbArc
50
178.71086107981483
51
268.71086107981608
0
LINE
5
149
100
AcDbEntity
8
0
100
AcDbLine
10
-9.8088945150684026
20
-84.406944711141279
30
0
11
-2.3107928250097665
21
-84.575678363800861
31
0
0
LINE
5
150
100
AcDbEntity
8
0
100
AcDbLine
10
-2.3107928250097665
20
-84.575678363800861
30
0
11
-2.2657971843005544
21
-82.57618457978522
31
0
0
LINE
5
151
100
AcDbEntity
8
0
100
AcDbLine
10
-2.2657971843005544
20
-82.57618457978522
30
0
11
7.7316717357776277
21
-82.801162783331307
31
0
0
LINE
5
152
100
AcDbEntity
8
0
100
AcDbLine
10
7.7316717357776277
20
-82.801162783331307
30
0
11
8.1908803953273406
21
-84.229142967715717
31
0
0
ARC
5
153
100
AcDbEntity
8
0
100
AcDbCircle
10
8.666873790122148
20
-84.076073414532488
30
0
40
0.49999999999999944
210
0
220
0
230
1
100
AcDbArc
50
197.82670839849965
51
287.82670839849965
0
LINE
5
154
100
AcDbEntity
8
0
100
AcDbLine
10
8.8199433433053791
20
-84.5520668093273
30
0
11
17.387824449611895
21
-81.79681485202903
31
0
0
ARC
5
155
100
AcDbEntity
8
0
100
AcDbCircle
10
17.234754896428633
20
-81.320821457234217
30
0
40
0.50000000000001077
210
0
220
0
230
1
100
AcDbArc
50
-72.173291601497027
51
17.826708398499235
0
LINE
5
156
100
AcDbEntity
8
0
100
AcDbLine
10
17.710748291223453
20
-81.167751904050988
30
0
11
17.251539631673758
21
-79.739771719666578
31
0
0
LINE
5
157
100
AcDbEntity
8
0
100
AcDbLine
10
17.251539631673758
20
-79.739771719666578
30
0
11
40.45539541244996
21
-72.27789540933918
31
0
0
LINE
5
158
100
AcDbEntity
8
0
100
AcDbLine
10
40.45539541244996
20
-72.27789540933918
30
0
11
40.914604071999662
21
-73.70587559372359
31
0
0
ARC
5
159
100
AcDbEntity
8
0
100
AcDbCircle
10
41.390597466794468
20
-73.552806040540347
30
0
40
0.50000000000000333
210
0
220
0
230
1
100
AcDbArc
50
197.8267083985013
51
287.82670839850027
0
LINE
5
160
100
AcDbEntity
8
0
100
AcDbLine
10
41.543667019977704
20
-74.028799435335159
30
0
11
50.11154812628422
21
-71.273547478036903
31
0
0
ARC
5
161
100
AcDbEntity
8
0
100
AcDbCircle
10
49.958478573100969
20
-70.79755408324209
30
0
40
0.50000000000001443
210
0
220
0
230
1
100
AcDbArc
50
-72.173291601498207
51
17.826708398498983
0
LINE
5
162
100
AcDbEntity
8
0
100
AcDbLine
10
50.434471967895796
20
-70.644484530058861
30
0
11
49.975263308346094
21
-69.216504345674423
31
0
0
LINE
5
163
100
AcDbEntity
8
0
100
AcDbLine
10
49.975263308346101
20
-48.916504345674426
30
0
11
51.475263308346101
21
-48.916504345674426
31
0
0
ARC
5
164
100
AcDbEntity
8
0
100
AcDbCircle
10
51.475263308346115
20
-48.41650434567444
30
0
40
0.49999999999998934
210
0
220
0
230
1
100
AcDbArc
50
-90.000000000001634
51
0
0
LINE
5
165
100
AcDbEntity
8
0
100
AcDbLine
10
51.975263308346101
20
-48.416504345674426
30
0
11
51.975263308346101
21
-40.01832874011906
31
0
0
ARC
5
166
100
AcDbEntity
8
0
100
AcDbCircle
10
51.475263308346101
20
-40.01832874011906
30
0
40
0.49999999999999822
210
0
220
0
230
1
100
AcDbArc
50
0
51
90
0
LINE
5
167
100
AcDbEntity
8
0
100
AcDbLine
10
51.475263308346101
20
-39.51832874011906
30
0
11
49.975263308346101
21
-39.51832874011906
31
0
0
LINE
5
168
100
AcDbEntity
8
0
100
AcDbLine
10
49.975263308346108
20
25.142873692036662
30
0
11
1.9170986071571861
21
25.18109587138521
31
0
0
LINE
5
169
100
AcDbEntity
8
0
100
AcDbLine
10
1.9170986071571861
20
25.18109587138521
30
0
11
1.9146888205820847
21
21.69520059826478
31
0
0
LINE
5
170
100
AcDbEntity
8
0
100
AcDbLine
10
1.9146888205820847
20
21.69520059826478
30
0
11
-9.085308551020546
21
21.702804855970616
31
0
0
LINE
5
171
100
AcDbEntity
8
0
100
AcDbLine
10
-9.085308551020546
20
21.702804855970616
30
0
11
-9.0828979733344184
21
25.189844516797429
31
0
0
LINE
5
172
100
AcDbEntity
8
0
100
AcDbLine
10
-9.0828979733344184
20
25.189844516797429
30
0
11
-57.00682723456292
21
25.227959934452251
31
0
0
LINE
5
173
100
AcDbEntity
8
0
100
AcDbLine
10
-57.00682723456292
20
25.227959934452251
30
0
11
-58.506825829944702
21
25.230012701525212
31
0
0
LWPOLYLINE
5
174
100
AcDbEntity
8
0
100
AcDbPolyline
90
6
70
1
43
0.0
10
51.975263308346101
20
24.64287369203667
42
0.41421356237309764
10
51.475263308346101
20
25.142873692036673
10
49.975263308346108
20
25.142873692036662
10
49.975263308346101
20
10.983495654325575
10
51.475263308346101
20
10.983495654325575
42
0.41421356237309892
10
51.975263308346094
20
11.483495654325571
0
LWPOLYLINE
5
175
100
AcDbEntity
8
0
100
AcDbPolyline
90
6
70
1
43
0.0
10
51.975263308346101
20
-0.21650434567442528
42
0.41421356237309659
10
51.475263308346101
20
0.28349565432557555
10
49.975263308346101
20
0.283495654325574
10
49.975263308346101
20
-8.7165043456744264
10
51.475263308346101
20
-8.7165043456744264
42
0.41421356237309698
10
51.975263308346101
20
-8.2165043456744264
0
LWPOLYLINE
5
176
100
AcDbEntity
8
0
100
AcDbPolyline
90
6
70
1
43
0.0
10
51.975263308346101
20
-19.916504345674429
42
0.41421356237309631
10
51.475263308346101
20
-19.416504345674429
10
49.975263308346101
20
-19.416504345674429
10
49.975263308346101
20
-28.916504345674426
10
51.475263308346101
20
-28.916504345674426
42
0.41421356237309764
10
51.975263308346094
20
-28.416504345674429
0
ARC
5
177
100
AcDbEntity
8
0
100
AcDbCircle
10
51.475263308346115
20
-60.216504345674416
30
0
40
0.49999999999998934
210
0
220
0
230
1
100
AcDbArc
50
0
51
90.000000000001634
0
LINE
5
178
100
AcDbEntity
8
0
100
AcDbLine
10
51.475263308346101
20
-59.71650434567443
30
0
11
49.975263308346101
21
-59.71650434567443
31
0
0
LINE
5
179
100
AcDbEntity
8
0
100
AcDbLine
10
49.975263308346094
20
-69.216504345674423
30
0
11
51.475263308346101
21
-69.216504345674423
31
0
0
ARC
5
180
100
AcDbEntity
8
0
100
AcDbCircle
10
51.475263308346101
20
-68.716504345674437
30
0
40
0.49999999999999822
210
0
220
0
230
1
100
AcDbArc
50
-90
51
0
0
LINE
5
181
100
AcDbEntity
8
0
100
AcDbLine
10
51.975263308346101
20
-68.716504345674437
30
0
11
51.975263308346101
21
-60.216504345674423
31
0
0
LINE
5
182
100
AcDbEntity
8
0
100
AcDbLine
10
-59.007509617440576
20
24.730697425416817
30
0
11
-59.02543069515481
21
11.635401978536104
31
0
0
LINE
5
183
100
AcDbEntity
8
0
100
AcDbLine
10
-58.526115419054619
20
11.134718191048464
30
0
11
-57.026116823672837
21
11.132665423967303
31
0
0
LINE
5
184
100
AcDbEntity
8
0
100
AcDbLine
10
-58.506825829944702
20
25.230012701525212
30
0
11
-9.0828979733344184
21
25.189844516797429
31
0
0
LINE
5
185
100
AcDbEntity
8
0
100
AcDbLine
10
-9.085308551020546
20
21.702804855970616
30
0
11
-9.0828979733344184
21
25.189844516797429
31
0
0
LINE
5
186
100
AcDbEntity
8
0
100
AcDbLine
10
-9.085308551020546
20
21.702804855970616
30
0
11
1.9146888205820847
21
21.69520059826478
31
0
0
LINE
5
187
100
AcDbEntity
8
0
100
AcDbLine
10
1.9146888205820847
20
21.69520059826478
30
0
11
1.9170986071571861
21
25.18109587138521
31
0
0
LINE
5
188
100
AcDbEntity
8
0
100
AcDbLine
10
1.9170986071571861
20
25.18109587138521
30
0
11
51.475263308346101
21
25.142873692036673
31
0
0
LINE
5
189
100
AcDbEntity
8
0
100
AcDbLine
10
51.975263308346101
20
24.64287369203667
30
0
11
51.975263308346094
21
11.483495654325571
31
0
0
LINE
5
190
100
AcDbEntity
8
0
100
AcDbLine
10
51.475263308346101
20
10.983495654325575
30
0
11
49.975263308346101
21
10.983495654325575
31
0
0
LINE
5
191
100
AcDbEntity
8
0
100
AcDbLine
10
49.975263308346101
20
10.983495654325575
30
0
11
49.975263308346101
21
0.283495654325574
31
0
0
LINE
5
192
100
AcDbEntity
8
0
100
AcDbLine
10
49.975263308346101
20
0.283495654325574
30
0
11
51.475263308346101
21
0.28349565432557555
31
0
0
LINE
5
193
100
AcDbEntity
8
0
100
AcDbLine
10
51.975263308346101
20
-0.21650434567442528
30
0
11
51.975263308346101
21
-8.2165043456744264
31
0
0
LINE
5
194
100
AcDbEntity
8
0
100
AcDbLine
10
51.475263308346101
20
-8.7165043456744264
30
0
11
49.975263308346101
21
-8.7165043456744264
31
0
0
LINE
5
195
100
AcDbEntity
8
0
100
AcDbLine
10
49.975263308346101
20
-8.7165043456744264
30
0
11
49.975263308346101
21
-19.416504345674429
31
0
0
LINE
5
196
100
AcDbEntity
8
0
100
AcDbLine
10
49.975263308346101
20
-19.416504345674429
30
0
11
51.475263308346101
21
-19.416504345674429
31
0
0
LWPOLYLINE
5
197
100
AcDbEntity
8
0
100
AcDbPolyline
90
4
70
1
43
0.0
10
51.475263308346101
20
-19.416504345674429
10
51.475263308346101
20
-19.416504345674426
42
-0.41421356237309764
10
51.975264308346105
20
-19.916504345674429
10
51.975263308346101
20
-19.916504345674429
42
0.41421356237309631
0
LINE
5
198
100
AcDbEntity
8
0
100
AcDbLine
10
51.975263308346101
20
-19.916504345674429
30
0
11
51.975263308346094
21
-28.416504345674429
31
0
0
LINE
5
199
100
AcDbEntity
8
0
100
AcDbLine
10
51.475263308346101
20
-28.916504345674426
30
0
11
49.975263308346101
21
-28.916504345674426
31
0
0
LINE
5
200
100
AcDbEntity
8
0
100
AcDbLine
10
49.975263308346101
20
-28.916504345674426
30
0
11
49.975263308346101
21
-39.51832874011906
31
0
0
LINE
5
201
100
AcDbEntity
8
0
100
AcDbLine
10
49.975263308346101
20
-39.51832874011906
30
0
11
51.475263308346101
21
-39.51832874011906
31
0
0
LINE
5
202
100
AcDbEntity
8
0
100
AcDbLine
10
51.975263308346101
20
-40.01832874011906
30
0
11
51.975263308346101
21
-48.416504345674426
31
0
0
LINE
5
203
100
AcDbEntity
8
0
100
AcDbLine
10
51.475263308346101
20
-48.916504345674426
30
0
11
49.975263308346101
21
-48.916504345674426
31
0
0
LINE
5
204
100
AcDbEntity
8
0
100
AcDbLine
10
49.975263308346101
20
-48.916504345674426
30
0
11
49.975263308346101
21
-59.71650434567443
31
0
0
LINE
5
205
100
AcDbEntity
8
0
100
AcDbLine
10
49.975263308346101
20
-59.71650434567443
30
0
11
51.475263308346101
21
-59.71650434567443
31
0
0
LINE
5
206
100
AcDbEntity
8
0
100
AcDbLine
10
51.975263308346101
20
-60.216504345674423
30
0
11
51.975263308346101
21
-68.716504345674437
31
0
0
LINE
5
207
100
AcDbEntity
8
0
100
AcDbLine
10
51.475263308346101
20
-69.216504345674423
30
0
11
49.975263308346094
21
-69.216504345674423
31
0
0
LINE
5
208
100
AcDbEntity
8
0
100
AcDbLine
10
49.975263308346094
20
-69.216504345674423
30
0
11
50.434471967895796
21
-70.644484530058861
31
0
0
LINE
5
209
100
AcDbEntity
8
0
100
AcDbLine
10
50.11154812628422
20
-71.273547478036903
30
0
11
41.543667019977704
21
-74.028799435335159
31
0
0
LINE
5
210
100
AcDbEntity
8
0
100
AcDbLine
10
40.914604071999662
20
-73.70587559372359
30
0
11
40.45539541244996
21
-72.27789540933918
31
0
0
LINE
5
211
100
AcDbEntity
8
0
100
AcDbLine
10
40.45539541244996
20
-72.27789540933918
30
0
11
17.251539631673758
21
-79.739771719666578
31
0
0
LINE
5
212
100
AcDbEntity
8
0
100
AcDbLine
10
17.251539631673758
20
-79.739771719666578
30
0
11
17.710748291223453
21
-81.167751904050988
31
0
0
LINE
5
213
100
AcDbEntity
8
0
100
AcDbLine
10
17.387824449611895
20
-81.79681485202903
30
0
11
8.8199433433053791
21
-84.5520668093273
31
0
0
LINE
5
214
100
AcDbEntity
8
0
100
AcDbLine
10
8.1908803953273406
20
-84.229142967715717
30
0
11
7.7316717357776277
21
-82.801162783331307
31
0
0
LINE
5
215
100
AcDbEntity
8
0
100
AcDbLine
10
7.7316717357776277
20
-82.801162783331307
30
0
11
-2.2657971843005544
21
-82.57618457978522
31
0
0
LINE
5
216
100
AcDbEntity
8
0
100
AcDbLine
10
-2.2657971843005544
20
-82.57618457978522
30
0
11
-2.3107928250097665
21
-84.575678363800861
31
0
0
LINE
5
217
100
AcDbEntity
8
0
100
AcDbLine
10
-2.3107928250097665
20
-84.575678363800861
30
0
11
-9.8088945150684026
21
-84.406944711141279
31
0
0
LINE
5
218
100
AcDbEntity
8
0
100
AcDbLine
10
-10.29751905089501
20
-83.895822354960089
30
0
11
-10.263772320363101
21
-82.396202016948365
31
0
0
LINE
5
219
100
AcDbEntity
8
0
100
AcDbLine
10
-10.263772320363101
20
-82.396202016948365
30
0
11
-17.632741484891127
21
-82.230374300165749
31
0
0
LINE
5
220
100
AcDbEntity
8
0
100
AcDbLine
10
-17.632741484891127
20
-82.230374300165749
30
0
11
-17.666488215422842
21
-83.729994638177502
31
0
0
LINE
5
221
100
AcDbEntity
8
0
100
AcDbLine
10
-18.177610571604063
20
-84.218619174004118
30
0
11
-25.175838815658786
21
-84.061134431521822
31
0
0
LINE
5
222
100
AcDbEntity
8
0
100
AcDbLine
10
-25.664463351485395
20
-83.550012075340646
30
0
11
-25.630716620953486
21
-82.050391737328908
31
0
0
LINE
5
223
100
AcDbEntity
8
0
100
AcDbLine
10
-25.630716620953486
20
-82.050391737328908
30
0
11
-35.628185541031662
21
-81.825413533782864
31
0
0
LINE
5
224
100
AcDbEntity
8
0
100
AcDbLine
10
-35.628185541031662
20
-81.825413533782864
30
0
11
-36.02583181682364
21
-83.271745943482927
31
0
0
LINE
5
225
100
AcDbEntity
8
0
100
AcDbLine
10
-36.640491378654325
20
-83.621307988118929
30
0
11
-41.461599410987837
21
-82.295820402145637
31
0
0
LINE
5
226
100
AcDbEntity
8
0
100
AcDbLine
10
-41.811161455623854
20
-81.681160840314945
30
0
11
-41.413515179831862
21
-80.234828430614897
31
0
0
LINE
5
227
100
AcDbEntity
8
0
100
AcDbLine
10
-41.413515179831862
20
-80.234828430614897
30
0
11
-51.359905682842417
21
-77.500225296114706
31
0
0
LINE
5
228
100
AcDbEntity
8
0
100
AcDbLine
10
-51.359905682842417
20
-77.500225296114706
30
0
11
-51.757551958634409
21
-78.946557705814769
31
0
0
LINE
5
229
100
AcDbEntity
8
0
100
AcDbLine
10
-52.372211520465079
20
-79.296119750450757
30
0
11
-57.193319552798599
21
-77.970632164477479
31
0
0
LINE
5
230
100
AcDbEntity
8
0
100
AcDbLine
10
-57.542881597434615
20
-77.355972602646801
30
0
11
-57.145235321642637
21
-75.909640192946739
31
0
0
LINE
5
231
100
AcDbEntity
8
0
100
AcDbLine
10
-57.145235321642637
20
-75.909640192946739
30
0
11
-57.135871334169977
21
-69.067184375594607
31
0
0
LINE
5
232
100
AcDbEntity
8
0
100
AcDbLine
10
-57.135871334169977
20
-69.067184375594607
30
0
11
-58.635869929551745
21
-69.065131608513454
31
0
0
LINE
5
233
100
AcDbEntity
8
0
100
AcDbLine
10
-59.135185205651965
20
-68.564447821025809
30
0
11
-59.123552871032899
21
-60.064464676436131
31
0
0
LINE
5
234
100
AcDbEntity
8
0
100
AcDbLine
10
-58.622869083545261
20
-59.565149400335919
30
0
11
-57.122870488163457
21
-59.567202167417079
31
0
0
LINE
5
235
100
AcDbEntity
8
0
100
AcDbLine
10
-57.122870488163457
20
-59.567202167417079
30
0
11
-57.108090579019219
21
-48.767222393909989
31
0
0
LINE
5
236
100
AcDbEntity
8
0
100
AcDbLine
10
-57.108090579019219
20
-48.767222393909989
30
0
11
-58.608089174400988
21
-48.765169626828836
31
0
0
LINE
5
237
100
AcDbEntity
8
0
100
AcDbLine
10
-59.1074044505012
20
-48.26448583934117
30
0
11
-59.095911463594959
21
-39.866326898497007
31
0
0
LINE
5
238
100
AcDbEntity
8
0
100
AcDbLine
10
-58.595227676107299
20
-39.367011622396802
30
0
11
-57.095229080725517
21
-39.36906438947797
31
0
0
LINE
5
239
100
AcDbEntity
8
0
100
AcDbLine
10
-57.095229080725517
20
-39.36906438947797
30
0
11
-57.080720376900217
21
-28.767259850378334
31
0
0
LINE
5
240
100
AcDbEntity
8
0
100
AcDbLine
10
-57.080720376900217
20
-28.767259850378334
30
0
11
-58.580718972281986
21
-28.76520708329717
31
0
0
LINE
5
241
100
AcDbEntity
8
0
100
AcDbLine
10
-59.080034248382205
20
-28.264523295809532
30
0
11
-59.068401913763118
21
-19.764540151150513
31
0
0
LINE
5
242
100
AcDbEntity
8
0
100
AcDbLine
10
-58.567718126275466
20
-19.265224875119642
30
0
11
-57.067719530893697
21
-19.267277642200803
31
0
0
LINE
5
243
100
AcDbEntity
8
0
100
AcDbLine
10
-57.067719530893697
20
-19.267277642200803
30
0
11
-57.05307647276004
21
-8.5672976814113717
31
0
0
LINE
5
244
100
AcDbEntity
8
0
100
AcDbLine
10
-57.05307647276004
20
-8.5672976814113717
30
0
11
-58.553075068141823
21
-8.5652449143302167
31
0
0
LINE
5
245
100
AcDbEntity
8
0
100
AcDbLine
10
-59.052390344242028
20
-8.0645611268425661
30
0
11
-59.041442264675922
21
-0.064577045841175656
31
0
0
LINE
5
246
100
AcDbEntity
8
0
100
AcDbLine
10
-58.540758477188263
20
0.43473823025903047
30
0
11
-57.040759881806494
21
0.43268546317787093
31
0
0
LINE
5
247
100
AcDbEntity
8
0
100
AcDbLine
10
-57.040759881806494
20
0.43268546317787093
30
0
11
-57.026116823672837
21
11.132665423967303
31
0
0
LINE
5
248
100
AcDbEntity
8
0
100
AcDbLine
10
-58.506825829944702
20
25.230012701525212
30
0
11
-43.83097165661907
21
25.209928609161317
31
0
0
LINE
5
249
100
AcDbEntity
8
0
100
AcDbLine
10
-59.007509617440576
20
24.730697425416817
30
0
11
-59.007509617546241
21
24.730697348200977
31
0
0
LINE
5
250
100
AcDbEntity
8
0
100
AcDbLine
10
-58.507103722142581
20
25.230012927375832
30
0
11
-58.506825829944702
21
25.230012701525212
31
0
0
ARC
5
251
100
AcDbEntity
8
0
100
AcDbCircle
10
-58.507510085752301
20
24.730013092507232
30
0
40
0.50000000000001132
210
0
220
-0
230
1
100
AcDbArc
50
89.953434155304365
51
179.92159004881168
0
LINE
5
252
100
AcDbEntity
8
0
100
AcDbLine
10
-59.02543069515481
20
11.635401978536104
30
0
11
-59.016470156297693
21
18.183049699043046
31
0
0
LINE
5
253
100
AcDbEntity
8
0
100
AcDbLine
10
-59.02543069515481
20
11.635401978536104
30
0
11
-59.02543069515481
21
11.634718191048464
31
0
0
LINE
5
254
100
AcDbEntity
8
0
100
AcDbLine
10
-58.52543069515481
20
11.134718191048464
30
0
11
-58.526115419054619
21
11.134718191048464
31
0
0
ARC
5
255
100
AcDbEntity
8
0
100
AcDbCircle
10
-58.52543069515481
20
11.63471819104846
30
0
40
0.49999999999999822
210
0
220
0
230
1
100
AcDbArc
50
180
51
270
0
LINE
5
256
100
AcDbEntity
8
0
100
AcDbLine
10
-59.041442264675922
20
-0.064577045841175656
30
0
11
-59.041442264675922
21
-0.06457704584117166
31
0
0
LINE
5
257
100
AcDbEntity
8
0
100
AcDbLine
10
-58.540758477188263
20
0.4347382302590288
30
0
11
-58.540758477188263
21
0.43473823025903047
31
0
0
ARC
5
258
100
AcDbEntity
8
0
100
AcDbCircle
10
-58.54144273288199
20
-0.065261301534899965
30
0
40
0.50000000000000233
210
0
220
-0
230
1
100
AcDbArc
50
89.921590048808596
51
179.92159004881168
0
LINE
5
259
100
AcDbEntity
8
0
100
AcDbLine
10
-57.05307647276004
20
-8.5672976814113717
30
0
11
-57.803075770449119
21
-8.5662712978707951
31
0
0
ARC
5
260
100
AcDbEntity
8
0
100
AcDbCircle
10
-58.552390812448081
20
-8.0652453825362755
30
0
40
0.50000000000002021
210
0
220
0
230
1
100
AcDbArc
50
179.92159004881168
51
269.92159004880693
0
ARC
5
261
100
AcDbEntity
8
0
100
AcDbCircle
10
-58.568402381969122
20
-19.765224406913738
30
0
40
0.50000000000016653
210
0
220
-0
230
1
100
AcDbArc
50
89.921590048816768
51
179.92159004084468
0
ARC
5
262
100
AcDbEntity
8
0
100
AcDbCircle
10
-58.580034716588301
20
-28.26520755150327
30
0
40
0.49999999999998462
210
0
220
0
230
1
100
AcDbArc
50
179.92159004881168
51
269.92159004881347
0
ARC
5
263
100
AcDbEntity
8
0
100
AcDbCircle
10
-58.59591193180102
20
-39.867011154190742
30
0
40
0.50000000000001565
210
0
220
-0
230
1
100
AcDbArc
50
89.921590048809406
51
179.92159004881168
0
ARC
5
264
100
AcDbEntity
8
0
100
AcDbCircle
10
-58.60740491870726
20
-48.265170095034897
30
0
40
0.50000000000001132
210
0
220
0
230
1
100
AcDbArc
50
179.92159004881168
51
269.92159004880858
0
ARC
5
265
100
AcDbEntity
8
0
100
AcDbCircle
10
-58.623553339238974
20
-60.065148932129844
30
0
40
0.49999999999999345
210
0
220
-0
230
1
100
AcDbArc
50
89.921590048810216
51
179.92159004881168
0
ARC
5
266
100
AcDbEntity
8
0
100
AcDbCircle
10
-58.635185673858025
20
-68.565132076719507
30
0
40
0.50000000000001132
210
0
220
0
230
1
100
AcDbArc
50
179.92159004881168
51
269.92159004880938
0
ARC
5
267
100
AcDbEntity
8
0
100
AcDbCircle
10
-57.060770794201261
20
-77.488521361244111
30
0
40
0.50000000000001532
210
0
220
0
230
1
100
AcDbArc
50
164.62725263593563
51
254.62725263593282
0
ARC
5
268
100
AcDbEntity
8
0
100
AcDbCircle
10
-52.239662761867748
20
-78.814008947217417
30
0
40
0.49999999999999817
210
0
220
0
230
1
100
AcDbArc
50
254.62725263593279
51
344.6272526359304
0
ARC
5
269
100
AcDbEntity
8
0
100
AcDbCircle
10
-41.329050652390492
20
-81.813709598912268
30
0
40
0.50000000000001532
210
0
220
0
230
1
100
AcDbArc
50
164.62725263593424
51
254.62725263593205
0
ARC
5
270
100
AcDbEntity
8
0
100
AcDbCircle
10
-36.507942620057008
20
-83.139197184885546
30
0
40
0.50000000000003619
210
0
220
0
230
1
100
AcDbArc
50
254.62725263593566
51
344.62725263592819
0
ARC
5
271
100
AcDbEntity
8
0
100
AcDbCircle
10
-25.164589905481503
20
-83.561260985517947
30
0
40
0.49999999999998868
210
0
220
0
230
1
100
AcDbArc
50
178.71086107981483
51
268.71086107981642
0
ARC
5
272
100
AcDbEntity
8
0
100
AcDbCircle
10
-18.166361661426745
20
-83.718745728000229
30
0
40
0.499999999999998
210
0
220
0
230
1
100
AcDbArc
50
268.71086107981245
51
358.71086107981762
0
ARC
5
273
100
AcDbEntity
8
0
100
AcDbCircle
10
-9.7976456048911178
20
-83.907071265137375
30
0
40
0.49999999999998868
210
0
220
0
230
1
100
AcDbArc
50
178.71086107981654
51
268.71086107981631
0
ARC
5
274
100
AcDbEntity
8
0
100
AcDbCircle
10
8.6668737901221498
20
-84.076073414532488
30
0
40
0.49999999999999406
210
0
220
0
230
1
100
AcDbArc
50
197.82670839849962
51
287.82670839849948
0
ARC
5
275
100
AcDbEntity
8
0
100
AcDbCircle
10
17.234754896428651
20
-81.320821457234217
30
0
40
0.50000000000000799
210
0
220
0
230
1
100
AcDbArc
50
-72.173291601498974
51
17.826708398499861
0
ARC
5
276
100
AcDbEntity
8
0
100
AcDbCircle
10
41.390597466794468
20
-73.552806040540361
30
0
40
0.50000000000000056
210
0
220
0
230
1
100
AcDbArc
50
197.82670839849976
51
287.82670839850078
0
ARC
5
277
100
AcDbEntity
8
0
100
AcDbCircle
10
49.958478573100976
20
-70.79755408324209
30
0
40
0.50000000000001166
210
0
220
0
230
1
100
AcDbArc
50
-72.173291601498974
51
17.826708398499235
0
ARC
5
278
100
AcDbEntity
8
0
100
AcDbCircle
10
51.475263308346101
20
-68.716504345674437
30
0
40
0.49999999999999822
210
0
220
0
230
1
100
AcDbArc
50
-90
51
0
0
ARC
5
279
100
AcDbEntity
8
0
100
AcDbCircle
10
51.475263308346122
20
-60.216504345674409
30
0
40
0.49999999999997158
210
0
220
0
230
1
100
AcDbArc
50
0
51
90.000000000002444
0
ARC
5
280
100
AcDbEntity
8
0
100
AcDbCircle
10
51.475263308346122
20
-48.416504345674447
30
0
40
0.49999999999997158
210
0
220
0
230
1
100
AcDbArc
50
-90.000000000002444
51
0
0
ARC
5
281
100
AcDbEntity
8
0
100
AcDbCircle
10
51.475263308346101
20
-40.01832874011906
30
0
40
0.49999999999999822
210
0
220
0
230
1
100
AcDbArc
50
0
51
90
0
ARC
5
282
100
AcDbEntity
8
0
100
AcDbCircle
10
51.475263308346115
20
-28.416504345674447
30
0
40
0.49999999999998046
210
0
220
0
230
1
100
AcDbArc
50
-90.000000000001634
51
0
0
ARC
5
283
100
AcDbEntity
8
0
100
AcDbCircle
10
51.475263308346101
20
-8.2165043456744282
30
0
40
0.49999999999999489
210
0
220
0
230
1
100
AcDbArc
50
-90
51
0
0
ARC
5
284
100
AcDbEntity
8
0
100
AcDbCircle
10
51.475263308346101
20
-0.21650434567442334
30
0
40
0.49999999999999822
210
0
220
0
230
1
100
AcDbArc
50
0
51
90
0
ARC
5
285
100
AcDbEntity
8
0
100
AcDbCircle
10
51.475263308346101
20
11.483495654325571
30
0
40
0.50000000000000266
210
0
220
0
230
1
100
AcDbArc
50
-90
51
0
0
ARC
5
286
100
AcDbEntity
8
0
100
AcDbCircle
10
51.475263308346094
20
24.642873692036666
30
0
40
0.49999999999999822
210
0
220
0
230
1
100
AcDbArc
50
0
51
89.99999999999919
0
ENDSEC
0
SECTION
2
OBJECTS
0
DICTIONARY
5
C
100
AcDbDictionary
3
ACAD_GROUP
350
D
3
ACAD_MLINESTYLE
350
17
0
DICTIONARY
5
D
100
AcDbDictionary
0
DICTIONARY
5
1A
330
C
100
AcDbDictionary
0
DICTIONARY
5
17
100
AcDbDictionary
0
ENDSEC
0
EOF
